<?xml version="1.0" ?><svg id="Layer_1_1_" style="enable-background:new 0 0 64 64;" version="1.1" viewBox="0 0 64 64" xml:space="preserve" xmlns="http://www.w3.org/2000/svg" xmlns:xlink="http://www.w3.org/1999/xlink"><g><g><g><path d="M54,30c0,0.68-0.06,1.35-0.17,2c-7.17-0.06-7.23-4-14.5-4c-7.34,0-7.34,4-14.67,4     c-7.27,0-7.33-3.94-14.49-4C11.53,20.12,20.8,14,32,14C44.13,14,54,21.18,54,30z" style="fill:#DFB28B;"/></g><g><path d="M58,2h4c0,6.97-2.99,13.26-7.75,17.64l-0.01,0.01c-0.81-1.03-1.74-2.01-2.78-2.9     C55.47,13.09,58,7.84,58,2z" style="fill:#F0D0B4;"/></g><g><path d="M12.54,16.75c-1.04,0.89-1.97,1.87-2.78,2.9l-0.01-0.01C4.99,15.26,2,8.97,2,2h4     C6,7.84,8.53,13.09,12.54,16.75z" style="fill:#F0D0B4;"/></g><g><path d="M53.83,32c0.11-0.65,0.17-1.32,0.17-2c0-8.82-9.87-16-22-16c-11.2,0-20.47,6.12-21.83,14     C10.06,28.65,10,29.32,10,30c0,8.82,9.87,16,22,16C43.2,46,52.47,39.88,53.83,32z M54.24,19.65C56.63,22.67,58,26.21,58,30     c0,8.36-6.67,15.51-16.13,18.5C37.75,49.8,35,53.68,35,58v4h-6v-4c0-4.32-2.75-8.2-6.87-9.5C12.67,45.51,6,38.36,6,30     c0-3.79,1.37-7.33,3.76-10.35c0.81-1.03,1.74-2.01,2.78-2.9C17.3,12.6,24.25,10,32,10s14.7,2.6,19.46,6.75     C52.5,17.64,53.43,18.62,54.24,19.65z" style="fill:#EF7385;"/></g><g><path d="M53.83,32C52.47,39.88,43.2,46,32,46c-12.13,0-22-7.18-22-16c0-0.68,0.06-1.35,0.17-2     c7.16,0.06,7.22,4,14.49,4c7.33,0,7.33-4,14.67-4C46.6,28,46.66,31.94,53.83,32z" style="fill:#F0D0B4;"/></g></g><g><path d="M63,2V1h-6v1c0,5.014-2.049,9.841-5.615,13.404C46.473,11.459,39.601,9,32,9s-14.473,2.459-19.385,6.404    C9.049,11.841,7,7.014,7,2V1H1v1c0,6.656,2.704,13.076,7.439,17.762C6.253,22.793,5,26.284,5,30    c0,8.591,6.605,16.229,16.829,19.457C25.52,50.623,28,54.055,28,57.997V63h8v-5.003c0-3.942,2.48-7.374,6.171-8.54    C52.395,46.229,59,38.591,59,30c0-3.716-1.253-7.207-3.439-10.238C60.296,15.076,63,8.656,63,2z M3.022,3h2.002    c0.249,5.138,2.436,10.031,6.078,13.719c-0.492,0.467-0.958,0.952-1.398,1.452C5.68,14.111,3.273,8.69,3.022,3z M41.569,47.55    C37.042,48.98,34,53.178,34,57.997V61h-4v-3.003c0-4.818-3.042-9.017-7.569-10.447C13.057,44.59,7,37.701,7,30    c0-10.477,11.215-19,25-19s25,8.523,25,19C57,37.701,50.943,44.59,41.569,47.55z M52.897,16.719    C56.54,13.031,58.726,8.138,58.976,3h2.002c-0.25,5.69-2.658,11.111-6.683,15.171C53.855,17.671,53.389,17.187,52.897,16.719z"/><path d="M32,17v2c8.168,0,15.378,3.979,16.771,9.255l1.934-0.511C49.088,21.619,41.047,17,32,17z"/><path d="M32,13C19.317,13,9,20.626,9,30s10.317,17,23,17s23-7.626,23-17S44.683,13,32,13z M32,45c-11.579,0-21-6.729-21-15    c0-0.325,0.04-0.643,0.068-0.963c2.707,0.171,4.209,0.983,5.782,1.841C18.763,31.921,20.74,33,24.66,33    c3.923,0,5.9-1.079,7.813-2.122C34.245,29.912,35.918,29,39.33,29s5.085,0.912,6.856,1.878c1.668,0.91,3.388,1.846,6.401,2.07    C50.664,39.812,42.166,45,32,45z M52.932,30.964c-2.709-0.171-4.214-0.983-5.788-1.841C45.23,28.079,43.253,27,39.33,27    s-5.9,1.079-7.813,2.122C29.745,30.088,28.072,31,24.66,31c-3.41,0-5.081-0.912-6.851-1.878c-1.667-0.909-3.386-1.845-6.397-2.07    C13.336,20.188,21.834,15,32,15c11.579,0,21,6.729,21,15C53,30.325,52.96,30.643,52.932,30.964z"/></g></g></svg>