<?xml version="1.0" ?><svg viewBox="0 0 512 512" xmlns="http://www.w3.org/2000/svg"><defs><style>.cls-1{fill:#95c5c6;}.cls-2{fill:#ce6b7a;}.cls-3{opacity:0.2;}.cls-4{fill:#3f456b;}.cls-5{fill:#fff;}.cls-6{fill:#ff9499;}</style></defs><title/><g id="Colors"><g data-name="&lt;liver;" id="liver"><path class="cls-1" d="M420.33,218.89S428,312,347,327V451s-6,6-23,0V333c0-44-38.46-38.46-38.46-38.46q4.43-4.43,8.87-9.09c.37-.39,3.65-4.1,7.94-8.94,0,0,32.65.49,40.65,30.49,0,0,54.87-16.25,54.87-75.62A207.2,207.2,0,0,0,420.33,218.89Z"/></g><path class="cls-2" d="M494.72,101.13a61.21,61.21,0,0,1-.66,17.9c-9.57,55.3-60.84,99.82-111.16,118.72-17.6,6.61-38.76,12.83-57.58,14.06-1.44.09-29.79,32.47-30.91,33.64a330.06,330.06,0,0,1-113.69,77.62c-28.07,11.56-59.52,24.66-90.33,24.73-35.11.09-58.12-33.51-65.72-63.21-10.09-39.41-13.38-84-7-124.27,9.9-62,39.4-121.32,103.41-140.5C137.22,55,155.45,51,172.28,50.29c66.36-2.69,108.47,8.08,147.83,22.35,0,0,4.92-2.55,7.58-3.82,16.62-7.92,39.8-12.31,52.75-13.86C419.67,50.27,488.65,52.23,494.72,101.13Z"/><g class="cls-3"><path class="cls-4" d="M14.61,233S6,360.5,138.5,325s158.86-95,158.86-95S360,231,420,183s65.4-91.74,62.7-107.62c0,0,33.8,24.12-3.7,85.12,0,0-42,77.52-156.5,91,0,0-55.39,88.24-170.94,126.87S9.89,324.27,14.61,233Z"/></g><g class="cls-3"><path class="cls-5" d="M472.45,67.19S400,44,326,98c0,0-23.5,26.5-36.75,15,0,0-8.32-6.88,1.46-18.06l5.83-5.87S268,71.1,186,75.38,67.33,99.67,38,135c0,0,18.67-68.67,118.67-83.33s162,22,162,22S388.39,29.39,472.45,67.19Z"/></g><g class="cls-3"><path class="cls-5" d="M222.67,91.6c0,20.25-30.15,41.17-67.34,46.73S88,132,88,111.73,118.15,70.56,155.33,65,222.67,71.35,222.67,91.6Z"/></g><g class="cls-3"><path class="cls-4" d="M396.57,246.65s14.71-4.63,23.57-11.14L420,219l-22,12Z"/></g><g class="cls-3"><polygon class="cls-4" points="304 275 286.96 294.4 304.91 297.33 320.33 280.5 304 275"/></g><path class="cls-1" d="M138.66,382.12S149,407,197,396s58.77-49.84,58.39-73.92C255.39,322.08,198.31,366.23,138.66,382.12Z"/><g class="cls-3"><path class="cls-4" d="M252.33,344s-24.84,24.62-67.91,40.74c13.16,2.21,32.19-.29,57.23-17.39-.67.89-22.58,29.29-60.32,31.46,0,0-29.33,5.19-42.33-16.81l.06,0c.81-.27,9.89-3.29,22.91-8.38,26.86-10.48,70.49-29.72,93-51.6Z"/></g><g class="cls-3"><path class="cls-4" d="M162,373.6c-13,5.09-22.1,8.11-22.91,8.38Z"/></g><g data-name="&lt;编组&gt;" id="_编组_2"><path class="cls-6" d="M443,351V495c-13,5-26,0-26,0V351c0-49-19.13-53.11-19.13-53.11a93.45,93.45,0,0,0,14.71-26.39C446.16,303,443,351,443,351Z"/><path class="cls-6" d="M378.12,239.51c-.06.48-2,17.53,14.83,20.49a73.53,73.53,0,0,1-16.78,26.17c-26.53-8.74-26.07-37.62-26.06-38.27A264,264,0,0,0,378.12,239.51Z"/></g><g class="cls-3"><path class="cls-4" d="M353,265s20.14-5,29-11.49L378,240l-30,8Z"/></g></g><g id="Lines"><path class="cls-4" d="M100.94,392.88c-39.24,0-70.43-25.3-81.11-67.05-10.81-42.22-13.31-87.07-7-126.3C18.34,164.68,29.17,135,45,111.22,63.61,83.21,88.75,64.3,119.69,55c19.51-5.84,37.13-9.11,52.39-9.73,67.71-2.75,111.11,8.79,147.67,21.9,1.7-.87,4.14-2.11,5.79-2.89,20.85-9.94,48.89-13.67,54.3-14.31,15.29-1.83,44.9-3.86,71.44,3.11,28.75,7.55,45.49,24,48.4,47.41h0a66.07,66.07,0,0,1-.7,19.37C488.8,178.7,434.23,223.81,384.66,242.43c-15.06,5.66-37.08,12.64-57.43,14.25-2.91,2.81-11.54,12.31-25.7,28.29-2.4,2.7-3.24,3.65-3.51,3.93-24.26,25.42-48.32,46.73-86.93,68.14-26.25,14.55-58.45,30.11-98.27,35.09A96.44,96.44,0,0,1,100.94,392.88Zm91.66-338c-6.45,0-13.14.14-20.11.42-14.43.58-31.22,3.72-49.93,9.32-28.65,8.58-51.95,26.13-69.27,52.15-15,22.54-25.3,50.92-30.64,84.35-6,37.9-3.61,81.32,6.87,122.24,5,19.71,15.17,35.66,29.28,46.14,14.57,10.82,32.82,15.22,52.78,12.72,38.13-4.78,69.25-19.82,94.66-33.92,37.5-20.79,60.92-41.54,84.55-66.29.26-.28,1.46-1.64,3.25-3.66C321.78,247,322.21,247,325,246.82c19.56-1.28,41.33-8.19,56.15-13.75,65.1-24.45,101.14-75.32,108-114.89a56.47,56.47,0,0,0,.63-16.43h0C483.38,50.32,398.07,57.89,381,59.92c-14.19,1.7-36.11,6.23-51.2,13.41-2.54,1.22-7.36,3.72-7.41,3.75a5,5,0,0,1-4,.27C281.33,63.9,245,54.87,192.6,54.87Z"/><path class="cls-4" d="M326.09,256.51c-10.17,0-18.3-2.86-24.21-8.55-10.2-9.8-9.54-24.22-9.5-24.83a5,5,0,0,1,10,.53c0,.2-.36,10.61,6.51,17.15,4.78,4.56,12.16,6.4,22,5.47a5,5,0,0,1,.94,10C329.82,256.42,327.92,256.51,326.09,256.51Z"/><path class="cls-4" d="M290.71,99.94A5,5,0,0,1,287,91.62c16.25-18.3,41.38-28.63,42.44-29.06a5,5,0,0,1,3.77,9.27h0c-.24.09-24.06,9.91-38.74,26.43A5,5,0,0,1,290.71,99.94Z"/><path class="cls-4" d="M343,312a5,5,0,0,1-4.83-3.71c-6.95-26.05-35.61-26.78-35.89-26.78a5,5,0,0,1,.07-10h.08c11.73.17,34.83,6.6,43.69,29a85.41,85.41,0,0,0,21.39-13.12c16.82-14.22,25.36-33.06,25.36-56a5,5,0,0,1,10,0c0,32.6-15.9,52.75-29.23,63.91a89.84,89.84,0,0,1-29.22,16.5A4.93,4.93,0,0,1,343,312Z"/><path class="cls-4" d="M337.47,458.65a45.51,45.51,0,0,1-15.13-2.94A5,5,0,0,1,319,451V333c0-12.41-3.27-21.53-9.72-27.12-9.5-8.23-22.9-6.41-23-6.39a5,5,0,0,1-1.43-9.9c.74-.11,18.1-2.45,31,8.73C324.57,305.89,329,317.56,329,333V447.34c6.87,1.92,10.95,1.36,13,.71V327a5,5,0,0,1,4.09-4.92c31.65-5.86,52.92-24.81,63.2-56.31a133.28,133.28,0,0,0,6.06-46.47,5,5,0,1,1,10-.82,141.64,141.64,0,0,1-6.53,50.39c-10.89,33.39-33.94,54.82-66.79,62.21V451a5,5,0,0,1-1.46,3.54C350,455.11,346.07,458.65,337.47,458.65Z"/><path class="cls-4" d="M174.4,403.82c-31.7,0-40-18.82-40.36-19.79a5,5,0,0,1,9.21-3.89c.44,1,10,20.75,52.63,11,51.42-11.79,54.72-55.77,54.51-69a5,5,0,0,1,10-.16c.5,31.12-15.6,68.18-62.27,78.87A106.64,106.64,0,0,1,174.4,403.82Z"/><path class="cls-4" d="M376.17,291.17a4.73,4.73,0,0,1-1.56-.26c-24-7.9-29.8-31.68-29.5-43.15a5,5,0,0,1,10,.25c0,1.09-.23,25.88,22.63,33.41a5,5,0,0,1-1.57,9.75Z"/><path class="cls-4" d="M430.49,502.22a46.28,46.28,0,0,1-15.28-2.55A5,5,0,0,1,412,495V351c0-43.23-15.2-48.21-15.36-48.26l.18,0,2.1-9.78c2.36.51,23.08,6.45,23.08,58V491.24a35.61,35.61,0,0,0,16,.1V351c0-.11,0-.22,0-.33,0-.45,2.54-46.08-28.85-75.52a5,5,0,0,1,6.84-7.3c34.22,32.1,32.22,79.51,32,83.3V495a5,5,0,0,1-3.21,4.67A39.83,39.83,0,0,1,430.49,502.22Z"/><path class="cls-4" d="M393,265a5.1,5.1,0,0,1-.87-.07c-17.2-3-19.9-18.37-18.92-26.06a5,5,0,0,1,9.92,1.23,18.39,18.39,0,0,0,.89,7.22c1.53,4.32,4.75,6.86,9.84,7.76A5,5,0,0,1,393,265Z"/></g></svg>