<?xml version="1.0" ?><svg id="Filloutline" style="enable-background:new 0 0 128 128;" version="1.1" viewBox="0 0 128 128" xml:space="preserve" xmlns="http://www.w3.org/2000/svg" xmlns:xlink="http://www.w3.org/1999/xlink"><g><g><g><linearGradient gradientUnits="userSpaceOnUse" id="SVGID_1_" x1="86.539" x2="86.3428" y1="92.694" y2="129.9679"><stop offset="0" style="stop-color:#EB5C43"/><stop offset="0.3685" style="stop-color:#E75944"/><stop offset="0.7497" style="stop-color:#DA4E48"/><stop offset="1" style="stop-color:#CE444C"/></linearGradient><path d="M97,108.268c0-7.13-4.14-14.236-8.946-14.236C83.248,94.031,75,99.923,76,109.311     c0.694,6.516,4.395,8.033,9,8.612v5.794c0,1.261,0.896,2.283,2,2.283s2-1.022,2-2.283v-6.268C93.33,115.838,97,114.09,97,108.268     z" style="fill:url(#SVGID_1_);"/><linearGradient gradientUnits="userSpaceOnUse" id="SVGID_2_" x1="87.5494" x2="82.6449" y1="72.7839" y2="117.7088"><stop offset="0" style="stop-color:#EB5C43"/><stop offset="0.3685" style="stop-color:#E75944"/><stop offset="0.7497" style="stop-color:#DA4E48"/><stop offset="1" style="stop-color:#CE444C"/></linearGradient><path d="M100,95.062c0,7.974-9.136,14.438-15.405,14.438C78.325,109.5,70,105.099,70,97.125     s10.758-14.438,17.027-14.438C93.296,82.688,100,87.089,100,95.062z" style="fill:url(#SVGID_2_);"/><linearGradient gradientUnits="userSpaceOnUse" id="SVGID_3_" x1="104.1033" x2="88.409" y1="72.9429" y2="104.3315"><stop offset="0" style="stop-color:#EB5C43"/><stop offset="0.3685" style="stop-color:#E75944"/><stop offset="0.7497" style="stop-color:#DA4E48"/><stop offset="1" style="stop-color:#CE444C"/></linearGradient><path d="M104,105.682c-3.694,3.753-10.62-0.895-16.078-8.078     c-5.458-7.184-7.417-15.394-4.376-18.338c7.572-7.33,10.071,2.502,15.529,9.686C104.533,96.135,114,95.523,104,105.682z" style="fill:url(#SVGID_3_);"/><linearGradient gradientUnits="userSpaceOnUse" id="SVGID_4_" x1="105.8171" x2="98.1661" y1="66.6994" y2="100.4421"><stop offset="0" style="stop-color:#EB5C43"/><stop offset="0.3685" style="stop-color:#E75944"/><stop offset="0.7497" style="stop-color:#DA4E48"/><stop offset="1" style="stop-color:#CE444C"/></linearGradient><path d="M113.727,93.424c-2.83,4.612-9.77,2.072-16.533-3.52     c-6.763-5.593-10.327-13.084-7.959-16.732c5.895-9.083,10.311-0.151,17.074,5.441C113.072,84.205,120.986,81.592,113.727,93.424z     " style="fill:url(#SVGID_4_);"/><linearGradient gradientUnits="userSpaceOnUse" id="SVGID_5_" x1="107.7026" x2="103.779" y1="59.0852" y2="89.8852"><stop offset="0" style="stop-color:#EB5C43"/><stop offset="0.3685" style="stop-color:#E75944"/><stop offset="0.7497" style="stop-color:#DA4E48"/><stop offset="1" style="stop-color:#CE444C"/></linearGradient><path d="M119.815,80.2c-1.583,5.318-8.875,5.055-16.749,1.804     c-7.874-3.251-13.141-9.329-11.765-13.577c3.426-10.575,9.868-3.38,17.741-0.129C116.917,71.55,123.876,66.558,119.815,80.2z" style="fill:url(#SVGID_5_);"/><linearGradient gradientUnits="userSpaceOnUse" id="SVGID_6_" x1="109.1418" x2="108.7494" y1="52.6072" y2="82.034"><stop offset="0" style="stop-color:#EB5C43"/><stop offset="0.3685" style="stop-color:#E75944"/><stop offset="0.7497" style="stop-color:#DA4E48"/><stop offset="1" style="stop-color:#CE444C"/></linearGradient><path d="M124.109,62.77c-0.08,5.806-7.006,8.221-15.343,7.91     c-8.337-0.31-14.984-4.355-14.848-9.035c0.34-11.65,6.882-3.985,15.219-3.674C117.475,58.282,124.271,51.115,124.109,62.77z" style="fill:url(#SVGID_6_);"/><linearGradient gradientUnits="userSpaceOnUse" id="SVGID_7_" x1="109.7487" x2="109.9449" y1="31.0241" y2="66.5324"><stop offset="0" style="stop-color:#EB5C43"/><stop offset="0.3685" style="stop-color:#E75944"/><stop offset="0.7497" style="stop-color:#DA4E48"/><stop offset="1" style="stop-color:#CE444C"/></linearGradient><path d="M125.919,47.582c0.081,7.304-6.412,9.878-15.263,10.823     c-8.852,0.946-16.369-2.367-16.791-7.399c-1.05-12.528,6.794-5.322,15.645-6.268S125.779,35,125.919,47.582z" style="fill:url(#SVGID_7_);"/><linearGradient gradientUnits="userSpaceOnUse" id="SVGID_8_" x1="107.0637" x2="110.5949" y1="17.6573" y2="58.0701"><stop offset="0" style="stop-color:#EB5C43"/><stop offset="0.3685" style="stop-color:#E75944"/><stop offset="0.7497" style="stop-color:#DA4E48"/><stop offset="1" style="stop-color:#CE444C"/></linearGradient><path d="M124.011,32.348c2.98,8.414-4.427,10.723-12.812,13.802     c-8.385,3.079-16.244,1.891-17.553-2.653C90.386,32.184,98.615,33.079,107,30S120,21.022,124.011,32.348z" style="fill:url(#SVGID_8_);"/></g><g><linearGradient gradientUnits="userSpaceOnUse" id="SVGID_9_" x1="89" x2="89" y1="29.993" y2="76.2915"><stop offset="0" style="stop-color:#E7816F"/><stop offset="0.6561" style="stop-color:#F79F8B"/></linearGradient><path d="M71.798,103c-0.811,0-1.547-0.6-1.747-1.493c-0.235-1.048,0.358-2.105,1.323-2.36     c0.285-0.075,27.539-7.801,30.056-30.575c2.643-23.916,3.007-48.143,2.98-48.385c-0.118-1.071,0.586-2.044,1.572-2.173     c0.991-0.125,1.882,0.636,2.001,1.707c0.027,0.247,0.262,24.903-2.431,49.279c-2.815,25.479-32.067,33.612-33.329,33.945     C72.081,102.982,71.938,103,71.798,103z" style="fill:url(#SVGID_9_);"/></g><g><linearGradient gradientUnits="userSpaceOnUse" id="SVGID_10_" x1="21.3691" x2="27.2544" y1="76.2373" y2="111.3532"><stop offset="0" style="stop-color:#EB5C43"/><stop offset="0.3685" style="stop-color:#E75944"/><stop offset="0.7497" style="stop-color:#DA4E48"/><stop offset="1" style="stop-color:#CE444C"/></linearGradient><ellipse cx="23.964" cy="91.721" rx="10.051" ry="8.279" style="fill:url(#SVGID_10_);"/><linearGradient gradientUnits="userSpaceOnUse" id="SVGID_11_" x1="20.993" x2="26.8783" y1="75.5736" y2="104.4119"><stop offset="0" style="stop-color:#EB5C43"/><stop offset="0.3685" style="stop-color:#E75944"/><stop offset="0.7497" style="stop-color:#DA4E48"/><stop offset="1" style="stop-color:#CE444C"/></linearGradient><path d="M36.971,83.079c0.525,5.137-6.117,9.595-14.044,9.873     C15,93.229,8.436,89.259,8.265,84.084c-0.378-11.452,6.289-4.389,14.216-4.667S35.909,72.693,36.971,83.079z" style="fill:url(#SVGID_11_);"/><linearGradient gradientUnits="userSpaceOnUse" id="SVGID_12_" x1="16.4044" x2="22.2898" y1="62.7288" y2="93.725"><stop offset="0" style="stop-color:#EB5C43"/><stop offset="0.3685" style="stop-color:#E75944"/><stop offset="0.7497" style="stop-color:#DA4E48"/><stop offset="1" style="stop-color:#CE444C"/></linearGradient><path d="M34.329,73.717c0.559,5.136-6.734,9.617-15.423,9.921S3.035,79.994,2.864,74.819     c-0.378-11.452,6.906-4.411,15.595-4.715S33.199,63.333,34.329,73.717z" style="fill:url(#SVGID_12_);"/><linearGradient gradientUnits="userSpaceOnUse" id="SVGID_13_" x1="15.8167" x2="20.525" y1="51.0674" y2="82.456"><stop offset="0" style="stop-color:#EB5C43"/><stop offset="0.3685" style="stop-color:#E75944"/><stop offset="0.7497" style="stop-color:#DA4E48"/><stop offset="1" style="stop-color:#CE444C"/></linearGradient><path d="M33.438,64.875c0.094,5.167-7.572,8.932-16.25,8.405     C8.509,72.752,1.713,68.135,2.009,62.966c0.655-11.439,7.274-3.732,15.952-3.205S33.248,54.428,33.438,64.875z" style="fill:url(#SVGID_13_);"/><linearGradient gradientUnits="userSpaceOnUse" id="SVGID_14_" x1="17.1724" x2="18.938" y1="37.9192" y2="69.7001"><stop offset="0" style="stop-color:#EB5C43"/><stop offset="0.3685" style="stop-color:#E75944"/><stop offset="0.7497" style="stop-color:#DA4E48"/><stop offset="1" style="stop-color:#CE444C"/></linearGradient><path d="M33.334,55.924c-0.656,5.124-8.782,7.668-17.287,5.813S1.492,54.271,2.535,49.205     c2.307-11.21,7.734-2.572,16.238-0.717S34.661,45.565,33.334,55.924z" style="fill:url(#SVGID_14_);"/><linearGradient gradientUnits="userSpaceOnUse" id="SVGID_15_" x1="20.8423" x2="19.6652" y1="22.0525" y2="56.3837"><stop offset="0" style="stop-color:#EB5C43"/><stop offset="0.3685" style="stop-color:#E75944"/><stop offset="0.7497" style="stop-color:#DA4E48"/><stop offset="1" style="stop-color:#CE444C"/></linearGradient><path d="M35.597,43.31c-0.814,5.89-9.069,9.062-17.574,7.207S3.597,42.426,4.798,36.591     C7.456,23.677,14.495,29.145,23,31S37.243,31.402,35.597,43.31z" style="fill:url(#SVGID_15_);"/></g><g><linearGradient gradientUnits="userSpaceOnUse" id="SVGID_16_" x1="23.5" x2="23.5" y1="25.6926" y2="118.5739"><stop offset="0" style="stop-color:#E7816F"/><stop offset="0.6561" style="stop-color:#F79F8B"/></linearGradient><path d="M25.836,112c-0.225,0-0.453-0.046-0.674-0.144c-0.931-0.41-1.384-1.574-1.012-2.6l0,0     c-0.004,0,1.41-5.367-2.808-25.814c-4.555-22.078-1.091-56.227-0.941-57.67c0.114-1.098,1.012-1.887,2.01-1.76     c0.996,0.125,1.711,1.116,1.598,2.214c-0.036,0.347-3.543,34.92,0.874,56.329c4.534,21.973,2.846,27.615,2.639,28.186     C27.238,111.524,26.557,112,25.836,112z" style="fill:url(#SVGID_16_);"/></g><g><linearGradient gradientUnits="userSpaceOnUse" id="SVGID_17_" x1="15.9764" x2="3.8133" y1="20.8047" y2="9.034"><stop offset="0" style="stop-color:#EB5C43"/><stop offset="0.3685" style="stop-color:#E75944"/><stop offset="0.7497" style="stop-color:#DA4E48"/><stop offset="1" style="stop-color:#CE444C"/></linearGradient><ellipse cx="13.367" cy="18.279" rx="11.367" ry="14.286" style="fill:url(#SVGID_17_);"/><linearGradient gradientUnits="userSpaceOnUse" id="SVGID_18_" x1="34.0535" x2="6.3924" y1="28.0524" y2="13.5352"><stop offset="0" style="stop-color:#EB5C43"/><stop offset="0.3685" style="stop-color:#E75944"/><stop offset="0.7497" style="stop-color:#DA4E48"/><stop offset="1" style="stop-color:#CE444C"/></linearGradient><path d="M8.817,35.619l-0.472-0.29c-3.254-1.998-4.369-6.423-2.49-9.884L16.617,5.619     c1.879-3.461,6.04-4.646,9.294-2.648l0.472,0.29c3.254,1.998,4.362,3.865,2.483,7.326L18.533,32.565     C16.655,36.026,12.071,37.617,8.817,35.619z" style="fill:url(#SVGID_18_);"/><linearGradient gradientUnits="userSpaceOnUse" id="SVGID_19_" x1="47.6061" x2="14.9772" y1="31.9242" y2="16.5332"><stop offset="0" style="stop-color:#EB5C43"/><stop offset="0.3685" style="stop-color:#E75944"/><stop offset="0.7497" style="stop-color:#DA4E48"/><stop offset="1" style="stop-color:#CE444C"/></linearGradient><path d="M24.891,42.741l-0.522-0.169c-0.599-0.195-1.191-0.496-1.756-0.881     c-3.659-2.491-4.767-7.664-2.824-11.797l9.077-19.306c2.725-4.354,5.276-6.015,8.87-4.847l0.522,0.169     c3.594,1.168,5.14,5.252,4.042,9.074L37,37C35.902,40.822,28.485,43.908,24.891,42.741z" style="fill:url(#SVGID_19_);"/><linearGradient gradientUnits="userSpaceOnUse" id="SVGID_20_" x1="62.6311" x2="24.4679" y1="28.9033" y2="24.8648"><stop offset="0" style="stop-color:#EB5C43"/><stop offset="0.3685" style="stop-color:#E75944"/><stop offset="0.7497" style="stop-color:#DA4E48"/><stop offset="1" style="stop-color:#CE444C"/></linearGradient><path d="M46,47c-9,0-9.961-10.14-9.438-12.012l5.585-20.003c2.006-5.494,2.619-7.35,6.268-7.388     l0.53-0.006c3.649-0.038,6.752,2.297,6.789,6.293l0.098,23.765C55.879,42.735,52,47,46,47z" style="fill:url(#SVGID_20_);"/><linearGradient gradientUnits="userSpaceOnUse" id="SVGID_21_" x1="79.3297" x2="46.3718" y1="26.8882" y2="27.2805"><stop offset="0" style="stop-color:#EB5C43"/><stop offset="0.3685" style="stop-color:#E75944"/><stop offset="0.7497" style="stop-color:#DA4E48"/><stop offset="1" style="stop-color:#CE444C"/></linearGradient><path d="M64,46.852L64,46.852c-4.566,0-8.267-3.701-8.267-8.267V15.556     c0-4.566,3.701-8.267,8.267-8.267h0c4.566,0,8.267,3.701,8.267,8.267v23.028C72.267,43.15,68.566,46.852,64,46.852z" style="fill:url(#SVGID_21_);"/><linearGradient gradientUnits="userSpaceOnUse" id="SVGID_22_" x1="93.686" x2="55.5141" y1="23.9417" y2="33.633"><stop offset="0" style="stop-color:#EB5C43"/><stop offset="0.3685" style="stop-color:#E75944"/><stop offset="0.7497" style="stop-color:#DA4E48"/><stop offset="1" style="stop-color:#CE444C"/></linearGradient><path d="M82,47c6,0,12-7,8.349-15.593l-4.495-16.423c-2.006-5.494-2.619-7.35-6.268-7.388     l-0.53-0.006c-3.649-0.038-6.752,2.297-6.789,6.293l-0.098,23.765C72.121,42.735,76,47,82,47z" style="fill:url(#SVGID_22_);"/><linearGradient gradientUnits="userSpaceOnUse" id="SVGID_23_" x1="128.8312" x2="106.0745" y1="6.0396" y2="25.6575"><stop offset="0" style="stop-color:#EB5C43"/><stop offset="0.3685" style="stop-color:#E75944"/><stop offset="0.7497" style="stop-color:#DA4E48"/><stop offset="1" style="stop-color:#CE444C"/></linearGradient><ellipse cx="114.633" cy="18.279" rx="11.367" ry="14.286" style="fill:url(#SVGID_23_);"/><linearGradient gradientUnits="userSpaceOnUse" id="SVGID_24_" x1="108.6614" x2="74.9187" y1="17.0024" y2="37.4049"><stop offset="0" style="stop-color:#EB5C43"/><stop offset="0.3685" style="stop-color:#E75944"/><stop offset="0.7497" style="stop-color:#DA4E48"/><stop offset="1" style="stop-color:#CE444C"/></linearGradient><path d="M103.109,42.741l0.522-0.169c0.599-0.195,1.191-0.496,1.756-0.881     c3.659-2.491,4.767-7.664,2.824-11.797l-9.077-19.306c-2.725-4.354-5.276-6.015-8.87-4.847l-0.522,0.169     c-3.594,1.168-5.14,5.252-4.042,9.074l6.2,21.979C92.998,40.783,99.515,43.908,103.109,42.741z" style="fill:url(#SVGID_24_);"/><linearGradient gradientUnits="userSpaceOnUse" id="SVGID_25_" x1="123.6817" x2="93.2741" y1="10.791" y2="30.605"><stop offset="0" style="stop-color:#EB5C43"/><stop offset="0.3685" style="stop-color:#E75944"/><stop offset="0.7497" style="stop-color:#DA4E48"/><stop offset="1" style="stop-color:#CE444C"/></linearGradient><path d="M119.183,35.619l0.472-0.29c3.254-1.998,4.369-6.423,2.49-9.884L111.383,5.619     c-1.879-3.461-6.04-4.646-9.294-2.648l-0.472,0.29c-3.254,1.998-4.362,3.865-2.483,7.326l10.333,21.979     C111.345,36.026,115.929,37.617,119.183,35.619z" style="fill:url(#SVGID_25_);"/></g><g><linearGradient gradientUnits="userSpaceOnUse" id="SVGID_26_" x1="42.9259" x2="105.3399" y1="17" y2="17"><stop offset="0" style="stop-color:#E7816F"/><stop offset="0.6561" style="stop-color:#F79F8B"/></linearGradient><path d="M64,29C38.955,29,13.135,20.547,2.605,8.902c-0.807-0.892-0.807-2.34,0-3.232     c0.806-0.893,2.116-0.893,2.922,0C15.198,16.364,40.335,24.429,64,24.429s48.802-8.065,58.472-18.759     c0.806-0.893,2.116-0.893,2.922,0c0.807,0.892,0.807,2.34,0,3.232C114.865,20.547,89.045,29,64,29z" style="fill:url(#SVGID_26_);"/></g></g><path d="M125.268,10.484c0.297-0.302,0.591-0.605,0.868-0.911c1.16-1.283,1.16-3.292,0-4.574   c-1.164-1.288-3.243-1.289-4.406,0c-0.129,0.143-0.272,0.284-0.407,0.426c-1.993-1.588-4.289-2.431-6.69-2.431   c-1.179,0-2.335,0.214-3.453,0.614c-1.008-1.141-2.3-1.96-3.773-2.354c-1.993-0.532-4.067-0.226-5.843,0.865l-0.472,0.29   C99.315,3.5,97.75,4.777,97.33,6.612c-1.846-1.811-4.183-2.861-7.376-1.824l-0.521,0.169c-2.247,0.73-3.878,2.526-4.625,4.771   c-1.088-2.042-2.442-3.103-5.212-3.132l-0.529-0.005c-2.284-0.042-4.272,0.741-5.713,2.153c-0.605,0.594-1.077,1.283-1.423,2.044   C70.307,8.098,67.365,6.29,64,6.29c-3.365,0-6.307,1.808-7.93,4.498c-0.346-0.76-0.817-1.45-1.423-2.043   c-1.44-1.412-3.453-2.181-5.712-2.153l-0.53,0.005c-2.741,0.029-4.087,1.039-5.21,3.15c-0.741-2.276-2.375-4.057-4.627-4.789   l-0.521-0.169c-3.191-1.037-5.531,0.013-7.381,1.831c-0.416-1.844-1.981-3.119-3.758-4.21l-0.472-0.29   c-1.776-1.091-3.85-1.398-5.843-0.865c-1.473,0.394-2.765,1.214-3.773,2.354c-1.118-0.4-2.275-0.615-3.452-0.615   c-2.402,0-4.698,0.843-6.69,2.431C6.542,5.282,6.399,5.142,6.27,4.999c-1.165-1.289-3.244-1.288-4.406,0   c-1.16,1.283-1.16,3.292,0,4.574c0.277,0.306,0.571,0.609,0.868,0.911C1.602,12.838,1,15.52,1,18.279   c0,3.667,1.063,7.203,2.99,9.972c-0.144,1.578,0.146,3.165,0.823,4.565c-0.002,0.006-0.007,0.009-0.009,0.015   c-0.371,0.974-0.693,2.138-0.986,3.558c-0.45,2.185,0.014,4.416,1.159,6.488c-2.071,0.911-2.919,3.679-3.422,6.127   c-0.501,2.437,0.372,4.934,2.248,7.152c-2.154,1.083-2.639,4.087-2.792,6.753c-0.117,2.049,0.704,3.992,2.208,5.68   c-1.028,1.196-1.456,3.176-1.354,6.263c0.065,1.96,0.992,3.83,2.681,5.408c0.782,0.73,1.707,1.374,2.735,1.936   c-0.028,0.589-0.038,1.22-0.015,1.922c0.106,3.206,2.281,5.965,5.656,7.742c0.083,4.844,4.487,8.742,10.192,9.102   c0.501,5.538,0.141,7.689,0.073,8.024c-0.501,1.492,0.194,3.178,1.573,3.786c0.344,0.151,0.707,0.229,1.078,0.229   c1.172,0,2.203-0.752,2.626-1.916c0.228-0.628,0.945-3.332,0.231-10.979c3.851-1.53,6.321-4.781,6.321-8.384   c0-0.638-0.095-1.27-0.248-1.891c2.248-1.927,3.455-4.339,3.198-6.853c-0.258-2.529-0.851-5.433-3.04-6.431   c0.362-0.948,0.508-1.934,0.398-2.937c-0.278-2.552-0.867-4.281-1.826-5.367c0.627-1.052,0.961-2.191,0.94-3.386   c-0.049-2.691-0.527-4.524-1.474-5.692c0.74-0.925,1.216-1.971,1.363-3.114c0.313-2.441,0.373-5.275-1.449-6.851   c2.052-1.481,3.394-3.458,3.711-5.754c0.073-0.525,0.122-1.008,0.161-1.474c0.354,0.784,0.785,1.548,1.313,2.245   C39.941,46.692,42.686,48,46,48c4.315,0,7.882-2.095,9.646-5.432c1.493,3.119,4.671,5.283,8.354,5.283   c3.652,0,6.856-2.15,8.359-5.276c0.448,0.842,1.014,1.62,1.697,2.31C76.045,46.894,78.867,48,82,48c2.667,0,5.34-1.222,7.333-3.353   c1.25-1.336,2.131-2.926,2.635-4.655c0.056,1.064,0.293,2.311,0.716,3.781c0.148,0.516,0.371,0.992,0.65,1.436   c-0.538,1.353-0.688,3.24-0.467,5.88c0.127,1.519,0.794,2.908,1.907,4.108c-1.171,1.104-1.76,3.15-1.855,6.419   c-0.016,0.55,0.052,1.092,0.185,1.624c-1.118,1.021-2.023,2.623-2.753,4.879c-0.234,0.722-0.302,1.49-0.229,2.285   c-0.578,0.605-1.157,1.345-1.726,2.222c-0.57,0.879-0.849,1.945-0.871,3.135c-1.471,0.26-3.008,1.172-4.674,2.786   c-1.059,1.025-1.619,2.563-1.709,4.437C75.207,85.347,69,90.68,69,97.125c0,0.894,0.112,1.771,0.305,2.62   c-0.28,0.596-0.384,1.287-0.23,1.98c0.25,1.12,1.077,1.949,2.103,2.194c1.029,1.451,2.322,2.646,3.75,3.6   c-0.01,0.628,0.01,1.263,0.078,1.897c0.734,6.895,4.665,8.694,8.994,9.375v4.925c0,1.811,1.346,3.284,3,3.284s3-1.473,3-3.284   v-5.577c4.29-1.655,8-3.804,8-9.872c0-0.267-0.013-0.539-0.024-0.81c0.832,0.307,1.632,0.494,2.388,0.542   c0.139,0.009,0.275,0.013,0.412,0.013c1.528,0,2.883-0.559,3.937-1.63c3.296-3.349,4.738-5.77,4.675-7.85   c-0.02-0.65-0.19-1.226-0.439-1.732c0.105,0.004,0.211,0.016,0.316,0.016c0.417,0,0.828-0.032,1.231-0.099   c1.762-0.293,3.136-1.226,4.084-2.772c2.773-4.52,3.599-7.379,2.648-9.416c0.05-0.023,0.107-0.038,0.156-0.062   c1.705-0.813,2.846-2.153,3.391-3.983c1.458-4.898,1.615-7.727,0.527-9.458c-0.323-0.515-0.739-0.896-1.205-1.188   c1.05-0.505,1.97-1.096,2.704-1.794c1.503-1.429,2.28-3.199,2.309-5.261c0.046-3.36-0.475-5.466-1.641-6.628   c-0.175-0.175-0.366-0.323-0.568-0.455c2.422-1.751,4.06-4.31,4.017-8.129c-0.039-3.451-0.617-5.59-1.819-6.732   c-0.253-0.24-0.543-0.42-0.849-0.571c1.526-2.02,1.986-4.632,0.703-8.253c-0.303-0.858-0.618-1.608-0.934-2.265   c0.041-0.501,0.036-1.006-0.011-1.51c1.926-2.77,2.991-6.287,2.991-9.96C127,15.516,126.398,12.837,125.268,10.484z M119.886,6.831   c-1.379,1.248-2.974,2.451-4.752,3.602l-2.774-5.109c0.742-0.214,1.502-0.331,2.273-0.331   C116.497,4.993,118.296,5.627,119.886,6.831z M102.14,4.113l0.472-0.29c1.304-0.8,2.824-1.025,4.279-0.637   c1.534,0.41,2.816,1.444,3.613,2.911l2.928,5.393c-3.064,1.811-6.593,3.471-10.445,4.943l-2.974-6.324   C98.531,7.381,99.008,6.036,102.14,4.113z M90.051,6.86l0.521-0.169c2.457-0.799,4.706-0.359,7.683,4.379c0,0,0,0,0,0l2.848,6.058   c-3.981,1.42-8.269,2.641-12.739,3.618l-1.704-6.04C85.667,11.247,87.156,7.8,90.051,6.86z M73.267,13.893   c0.014-1.494,0.528-2.78,1.487-3.72c1.058-1.038,2.592-1.608,4.292-1.582l0.53,0.005c2.622,0.027,3.213,0.962,4.817,5.305   c0.02,0.054,0.059,0.092,0.086,0.14c0.063,0.403,0.143,0.808,0.259,1.213l1.665,5.903c-4.288,0.86-8.716,1.497-13.174,1.873   l0.029-7.109c0.001-0.015,0.008-0.027,0.008-0.041v-0.323c0-0.042-0.006-0.083-0.006-0.125L73.267,13.893z M64,8.29   c3.964,0,7.192,3.192,7.26,7.141l-0.032,7.75c-2.412,0.161-4.828,0.249-7.228,0.249c-2.413,0-4.842-0.089-7.267-0.251v-7.621   C56.733,11.549,59.993,8.29,64,8.29z M48.425,8.596l0.53-0.005c1.692-0.026,3.233,0.543,4.291,1.582   c0.959,0.94,1.474,2.227,1.487,3.721l0.013,1.275c0,0.009,0.005,0.016,0.005,0.025c-0.005,0.122-0.018,0.241-0.018,0.363v7.47   c-4.48-0.38-8.929-1.022-13.235-1.89l1.587-5.81l0.102-0.279C45.159,9.644,45.619,8.626,48.425,8.596z M37.428,6.69l0.521,0.169   c2.436,0.792,3.912,3.32,3.67,6.359l-0.004,0.305c-0.1,0.272-0.201,0.549-0.307,0.838l-1.768,6.363   c-4.436-0.974-8.693-2.188-12.645-3.597l2.85-6.062C32.723,6.333,34.971,5.893,37.428,6.69z M21.109,3.186   c1.455-0.391,2.975-0.164,4.279,0.637l0.473,0.29c3.123,1.917,3.604,3.255,2.146,5.963c-0.002,0.003-0.001,0.007-0.003,0.011   c-0.014,0.025-0.029,0.049-0.041,0.075l-2.949,6.272c-3.852-1.473-7.381-3.132-10.445-4.943l2.928-5.394   C18.292,4.629,19.575,3.596,21.109,3.186z M15.641,5.322l-2.775,5.112c-1.778-1.151-3.373-2.354-4.752-3.602   c1.59-1.205,3.388-1.839,5.252-1.839C14.137,4.993,14.898,5.107,15.641,5.322z M3.348,6.34C3.545,6.121,3.801,6,4.067,6   c0.266,0,0.521,0.121,0.719,0.34C14.626,17.222,40.083,25.429,64,25.429s49.374-8.207,59.214-19.089   c0.396-0.439,1.042-0.438,1.438,0c0.463,0.512,0.463,1.378,0,1.891C114.295,19.686,88.787,28,64,28S13.705,19.686,3.347,8.231   C2.884,7.719,2.884,6.853,3.348,6.34z M119.132,34.477l-0.472,0.29c-1.204,0.739-2.702,0.923-4.214,0.518   c-1.732-0.463-3.265-1.658-4.074-3.145l-4.608-9.802c3.926-1.546,7.542-3.287,10.742-5.189l4.762,8.772   C122.893,28.917,121.936,32.755,119.132,34.477z M87.747,94.572c-7.852,5.279-15.459,7.321-15.776,7.405   c-0.431,0.109-0.836-0.204-0.944-0.688c-0.116-0.52,0.16-1.058,0.604-1.175c0.282-0.075,28.218-8.135,30.793-31.432   c0.854-7.731,1.557-16.275,2.091-25.397c0.482-0.205,0.963-0.447,1.435-0.768c0.205-0.139,0.398-0.291,0.588-0.445   c-0.415,9.64-1.078,18.656-1.98,26.818C103.419,79.197,97.763,87.838,87.747,94.572z M94.918,61.675   c0.083-2.838,0.537-4.526,1.38-5.149c1.353,0.961,3.071,1.732,5.089,2.264c-0.274,3.137-0.571,6.171-0.89,9.092   C96.964,66.328,94.85,64.009,94.918,61.675z M94.606,43.22c-0.188-0.651-0.322-1.239-0.429-1.792   c0.507,0.372,1.057,0.721,1.654,1.038c1.864,0.991,3.85,1.517,5.567,1.517c0.372,0,0.732-0.026,1.075-0.076   c-0.059,0.991-0.12,1.977-0.183,2.954C98.166,46.861,95.264,45.501,94.606,43.22z M103.89,23.053l3.414,7.259   c0.001,0.002,0.001,0.004,0.001,0.006c1.768,3.762,0.678,8.394-2.48,10.545c-0.502,0.341-1.008,0.596-1.504,0.757l-0.521,0.169   c-1.501,0.488-3.867,0.06-6.029-1.089c-2.036-1.082-3.498-2.583-3.908-4.011l-2.712-9.615   C94.973,25.993,99.596,24.638,103.89,23.053z M35.599,34.719c-0.174,0.622-0.208,1.713-0.043,3.002   c-1.838,2.75-7.522,4.989-10.355,4.069l-0.523-0.17c-0.495-0.161-1-0.416-1.502-0.756c-3.16-2.152-4.25-6.784-2.481-10.545   l3.416-7.265c4.261,1.573,8.846,2.919,13.629,3.996L35.599,34.719z M31.52,60.566c0.576,0.819,0.88,2.238,0.918,4.326   c0.054,2.94-3.157,5.605-8.081,6.795c-0.253-2.772-0.427-5.613-0.537-8.46C27.007,62.921,29.668,61.976,31.52,60.566z    M25.69,81.437c-0.471-2.446-0.844-5.049-1.134-7.747c3.307-0.756,5.957-2.102,7.675-3.823c0.534,0.805,0.905,2.127,1.104,3.958   C33.659,76.799,30.613,79.795,25.69,81.437z M18.802,29.643l-1.148,2.445c-0.835,1.538-2.367,2.733-4.1,3.196   c-1.513,0.405-3.011,0.221-4.214-0.518l-0.472-0.29c-2.804-1.721-3.761-5.559-2.135-8.555l4.762-8.772   c3.2,1.902,6.816,3.643,10.742,5.188l-3.352,7.129c-0.023,0.048-0.039,0.098-0.061,0.146   C18.818,29.625,18.808,29.632,18.802,29.643z M3,18.279c0-2.229,0.457-4.384,1.282-6.323c1.617,1.442,3.464,2.826,5.509,4.141   l-4.815,8.87c-0.102,0.188-0.189,0.38-0.275,0.572C3.601,23.391,3,20.879,3,18.279z M7.821,36.181l0.472,0.29   c1.105,0.679,2.374,1.025,3.698,1.025c0.684,0,1.382-0.093,2.081-0.279c1.44-0.385,2.745-1.133,3.797-2.156   c0.078,0.969,0.289,1.914,0.618,2.809l-0.014,0.192c-0.192,3.487-0.349,7.364-0.425,11.43c-7.856-1.786-13.35-7.449-12.27-12.699   c0.144-0.699,0.298-1.334,0.461-1.91C6.703,35.374,7.227,35.816,7.821,36.181z M3.514,49.407c0.843-4.097,1.973-4.7,2.586-4.811   c2.482,3.193,6.666,5.797,11.711,6.898c0.068,0.015,0.135,0.027,0.203,0.041c-0.036,3.117-0.017,6.326,0.073,9.547   c-0.611-0.088-1.222-0.19-1.827-0.322C8.436,59.053,2.599,53.854,3.514,49.407z M5.389,57.747   c2.555,2.231,6.179,4.036,10.445,4.967c0.768,0.167,1.545,0.293,2.319,0.394c0.117,3.096,0.305,6.185,0.585,9.199   c-0.498-0.001-0.996,0.005-1.491-0.025c-7.979-0.485-14.5-4.725-14.24-9.259C3.288,58.137,4.64,57.805,5.389,57.747z M3.864,74.786   c-0.079-2.392,0.196-4,0.81-4.815c2.916,2.361,7.338,3.996,12.453,4.307c0.558,0.034,1.12,0.051,1.679,0.051   c0.048,0,0.095-0.002,0.142-0.002c0.309,2.848,0.707,5.605,1.208,8.219c-0.427,0.037-0.854,0.078-1.285,0.094   c-5.262,0.177-10.228-1.288-12.96-3.84C4.619,77.591,3.911,76.204,3.864,74.786z M9.264,84.051   c-0.011-0.336-0.011-0.646-0.01-0.952c2.542,0.998,5.53,1.555,8.704,1.555c0.326,0,0.653-0.006,0.982-0.017   c0.536-0.019,1.069-0.067,1.6-0.116c0.558,2.755,1.012,5.226,1.378,7.432C15.026,91.875,9.409,88.435,9.264,84.051z M15.023,92.785   c2.102,0.756,4.517,1.181,7.106,1.181c0.037,0,0.074-0.001,0.11-0.001c0.285,1.863,0.504,3.52,0.668,4.982   C18.872,98.561,15.624,95.989,15.023,92.785z M26.583,110.401c-0.171,0.469-0.617,0.716-1.017,0.541   c-0.45-0.198-0.667-0.813-0.475-1.343c0.016-0.044,0.029-0.088,0.038-0.133c0.148-0.656,1.235-6.636-2.807-26.224   c-2.632-12.756-2.589-29.538-1.995-42.262c0.47,0.535,1.001,1.02,1.594,1.44c-0.491,11.742-0.533,28.144,1.983,40.339   C28.46,104.838,26.662,110.184,26.583,110.401z M33.015,91.721c0,2.61-1.762,4.996-4.54,6.29c-0.165-1.438-0.374-3.02-0.638-4.768   c1.943-0.499,3.675-1.221,5.135-2.114C32.992,91.327,33.015,91.523,33.015,91.721z M35.976,83.181   c0.343,3.355-3.172,6.667-8.452,8.082c-0.384-2.343-0.862-4.956-1.447-7.852c3.613-1.159,6.352-2.972,7.886-5.106   C34.611,78.523,35.583,79.338,35.976,83.181z M32.342,55.797c-0.365,2.844-3.71,4.935-8.591,5.431   c-0.09-3.122-0.11-6.223-0.081-9.207c2.759-0.098,5.246-0.695,7.29-1.686C32.011,50.784,32.846,51.863,32.342,55.797z    M23.698,50.022c0.039-2.295,0.104-4.499,0.184-6.574c0.059,0.021,0.118,0.054,0.178,0.073l0.522,0.17   c0.635,0.206,1.354,0.302,2.123,0.302c2.602,0,5.762-1.104,8.093-2.768c-0.032,0.592-0.094,1.24-0.192,1.947   C34.072,47.04,29.635,49.786,23.698,50.022z M54.699,39.255C53.978,43.29,50.482,46,46,46c-2.703,0-4.837-1.007-6.345-2.992   c-2.195-2.893-2.374-6.88-2.13-7.751l2.173-7.786c4.876,1.012,9.93,1.746,15.035,2.153v8.961c0,0.174,0.017,0.345,0.026,0.517   C54.741,39.154,54.709,39.199,54.699,39.255z M71.249,39.102c-0.265,3.785-3.449,6.75-7.249,6.75c-4.007,0-7.267-3.26-7.267-7.267   v-8.817C59.154,29.92,61.581,30,64,30c2.397,0,4.802-0.078,7.201-0.228l-0.032,7.866c-0.005,0.481,0.034,0.953,0.092,1.419   C71.259,39.073,71.25,39.086,71.249,39.102z M87.873,43.281C86.256,45.009,84.116,46,82,46c-2.595,0-4.912-0.896-6.524-2.523   c-1.509-1.523-2.329-3.59-2.308-5.825l0.033-8.023c5.088-0.403,10.127-1.131,14.989-2.134l2.028,7.19l0.223,1.247   C90.613,38.717,89.702,41.326,87.873,43.281z M94.932,46.908c1.694,1.247,4.177,1.936,7.226,1.951   c-0.184,2.696-0.383,5.333-0.598,7.905c-3.949-1.125-6.487-3.31-6.699-5.842C94.721,49.252,94.747,47.914,94.932,46.908z    M92.253,68.736c0.494-1.526,1.07-2.693,1.717-3.496c1.185,1.877,3.337,3.514,6.25,4.694c-0.474,2.894-1.354,5.533-2.54,7.92   C93.603,74.846,91.438,71.252,92.253,68.736z M90.074,73.715c0.223-0.343,0.445-0.655,0.667-0.948   c0.98,2.329,3.046,4.74,5.977,6.856c-1.022,1.742-2.202,3.338-3.48,4.803C89.917,80.161,88.642,75.921,90.074,73.715z    M84.242,79.983c1.286-1.245,2.446-1.982,3.465-2.217c0.49,2.487,1.916,5.328,4.16,8.146c-2.081,2.131-4.349,3.947-6.604,5.472   C82.849,86.362,82.41,81.756,84.242,79.983z M81.226,85.108c0.262,2.209,1.051,4.729,2.35,7.372   c-6.468,4.009-12.334,5.667-12.457,5.7c-0.019,0.005-0.035,0.015-0.054,0.021C71.027,97.846,71,97.488,71,97.125   C71,92.063,75.983,87.402,81.226,85.108z M73.486,103.617c2.152-0.666,7.455-2.512,13.206-6.005   c0.145,0.199,0.284,0.399,0.434,0.596c2.09,2.75,4.282,5.006,6.415,6.663c-2.786,2.22-6.201,3.628-8.946,3.628   C81.139,108.5,76.393,106.96,73.486,103.617z M96,108.268c0,5.115-3.046,6.643-7.349,8.243C88.26,116.657,88,117.03,88,117.448   v6.268c0,0.696-0.458,1.284-1,1.284s-1-0.588-1-1.284v-5.794c0-0.504-0.375-0.929-0.875-0.992c-4.572-0.574-7.527-2.066-8.13-7.726   c-0.019-0.176-0.025-0.351-0.037-0.527c2.547,1.234,5.296,1.823,7.637,1.823c3.378,0,7.403-1.696,10.639-4.433   c0.225,0.142,0.448,0.279,0.67,0.406C95.963,107.075,96,107.678,96,108.268z M106.019,96.301c0.937,0.842,1.346,1.527,1.369,2.293   c0.044,1.449-1.297,3.538-4.101,6.386c-0.749,0.762-1.662,1.1-2.796,1.024c-3.197-0.204-7.708-3.655-11.773-9.005   c-0.115-0.152-0.221-0.305-0.333-0.457c0.159-0.105,0.318-0.202,0.477-0.31c2.711-1.823,5.124-3.814,7.242-5.946   c0.151,0.129,0.298,0.26,0.452,0.388c2.206,1.825,5.815,4.452,9.43,5.585C106,96.272,106.005,96.289,106.019,96.301z M112.875,92.9   c-0.641,1.045-1.526,1.648-2.708,1.845c-2.933,0.496-7.431-1.557-12.336-5.612c-0.119-0.098-0.232-0.2-0.348-0.299   c1.763-1.955,3.282-4.022,4.553-6.189c0.216,0.095,0.429,0.193,0.648,0.284c3.88,1.602,7.377,2.415,10.255,2.415   c0.836,0,1.617-0.071,2.343-0.209C115.907,86.11,115.915,87.946,112.875,92.9z M117.07,70.921c1.425,0.229,2.16,0.568,2.538,1.169   c0.72,1.147,0.475,3.706-0.751,7.824c-0.382,1.282-1.146,2.182-2.334,2.749c-2.724,1.298-7.49,0.722-13.074-1.583   c-0.151-0.062-0.297-0.13-0.446-0.195c1.527-2.98,2.598-6.133,3.194-9.428c0.834,0.108,1.679,0.191,2.533,0.223   c0.496,0.018,0.983,0.027,1.462,0.027c2.569,0,4.871-0.278,6.872-0.789C117.066,70.919,117.068,70.921,117.07,70.921z    M122.057,57.573c0.736,0.733,1.09,2.477,1.052,5.184c-0.021,1.503-0.588,2.795-1.687,3.838c-2.289,2.175-6.89,3.304-12.619,3.086   c-0.779-0.029-1.549-0.104-2.309-0.201c0.015-0.124,0.038-0.246,0.052-0.37c0.339-3.065,0.642-6.256,0.913-9.547   c0.068,0,0.134,0.003,0.202,0.003c1.021,0,2.061-0.056,3.1-0.167c3.146-0.336,6.75-0.941,9.758-2.323   C121.234,57.065,121.707,57.224,122.057,57.573z M110.549,57.411c-0.985,0.105-1.963,0.141-2.929,0.139   c0.237-3.07,0.447-6.225,0.626-9.464c1.097-0.269,2.203-0.596,3.297-0.997l0.999-0.366c3.866-1.412,7.625-2.788,10.13-4.841   c0.445,0.025,0.78,0.152,1.05,0.408c0.763,0.724,1.166,2.508,1.196,5.304C124.982,53.315,120.551,56.343,110.549,57.411z    M111.856,44.845l-1.002,0.366c-0.83,0.305-1.665,0.555-2.498,0.779c0.105-2.061,0.201-4.144,0.282-6.264   c0.001-0.015-0.007-0.027-0.007-0.041c0.85-1.377,1.364-2.964,1.499-4.618c1.047,1.014,2.354,1.765,3.798,2.151   c0.698,0.187,1.396,0.279,2.08,0.279c1.324,0,2.593-0.347,3.698-1.025l0.472-0.29c1.304-0.801,2.3-1.95,2.958-3.269   C125.354,39.537,120.53,41.677,111.856,44.845z M123.301,25.543c-0.087-0.193-0.174-0.387-0.277-0.575l-4.815-8.87   c2.052-1.32,3.906-2.709,5.527-4.157c0.826,1.939,1.264,4.105,1.264,6.339C125,20.886,124.402,23.396,123.301,25.543z" style="fill:#3A322B;"/></g></svg>