<?xml version="1.0" ?><svg id="Слой_1" style="enable-background:new 0 0 300 300;" version="1.1" viewBox="0 0 300 300" xml:space="preserve" xmlns="http://www.w3.org/2000/svg" xmlns:xlink="http://www.w3.org/1999/xlink"><g><path d="M215.291,116.908c-3.358-35.781-6.249-66.779,17.885-93.386l-5.91-5.728   c-4.82,5.282-8.875,10.946-12.057,16.871c-0.517,0.962-1.523,1.56-2.598,1.56c-0.056,0-0.111-0.001-0.167-0.004   c-1.152-0.067-2.131-0.777-2.559-1.856c-2.944-7.47-6.148-13.325-9.545-17.457l-4.558,4.54c1.134,1.436,2.261,3.116,3.364,5.049   c6.213,10.889,8.642,24.245,6.837,37.609c-1.079,7.99-1.359,16.721-0.881,27.473c0.061,1.314-0.733,2.497-1.973,2.939   c-1.233,0.435-2.586,0.03-3.367-1.021c-6.048-8.133-12.292-12.257-18.56-12.258c-6.259,0-9.014,2.031-11.226,3.663   c-1.659,1.224-3.092,2.281-6.884,2.823c-2.942,0.413-4.69-0.67-6.894-2.054c-1.67-1.049-3.557-2.238-6.009-2.479   c-6.931-0.69-10.389,1.726-14.354,6.427c-4.085,4.849-7.238,10.541-9.369,16.922c-0.124,0.371-0.373,0.795-0.665,1.058   c-0.339,0.305-0.847,0.576-1.298,0.638c-3.323,0.454-20.212,4.158-26.421,32.52c-3.277,14.974-9.828,26.868-16.164,38.371   c-12.899,23.416-25.083,45.533-6.08,90.305c0.006,0.003,0.46,0.921,0.542,1.078c6.543,11.284,13.697,13.547,23.829,13.618   c0.041,0,0.084,0,0.126,0c6.974,0,14.604-4.081,23.325-12.474c31.803-30.608,29.227-54.29,26.501-79.362   c-1.424-13.084-2.895-26.613,0.303-41.65c6.782-31.9-8.895-38.975-9.566-39.261c-0.974-0.414-1.55-1.453-1.366-2.494l0.82-4.637   c1.186-5.723,3.013-9.141,5.766-10.821c2.137-1.301,4.767-1.495,8.035-0.586c1.267,0.354,2.37,1.009,3.437,1.644   c2.162,1.289,4.403,2.621,8.738,2c4.076-0.579,5.658-2.439,7.189-4.237c0.657-0.773,1.277-1.502,2.065-2.081   c1.903-1.403,2.709-1.889,5.604-1.889c7.34,0.001,19.657,13.364,25.179,31.245c0.673,2.177,1.409,4.732,1.6,7.463   c0,0.004,0.001,0.009,0.001,0.013c4.283,48.433,3.339,96.098-53.387,146.565l5.406,6.212   C225.131,221.858,219.912,166.128,215.291,116.908z" style="fill:#9DC667;"/><path d="M161.27,284.717c0.001-0.001,0.001-0.002,0.003-0.003c-0.175,0.152-0.374,0.252-0.576,0.342   C160.897,284.967,161.095,284.869,161.27,284.717z" style="fill:#F56464;"/><path d="M160.563,285.136c-0.253,0.093-0.518,0.139-0.783,0.139   C160.044,285.275,160.309,285.229,160.563,285.136z" style="fill:#F56464;"/><path d="M149.141,273.653c-0.016-0.127-0.016-0.254-0.01-0.381   C149.126,273.399,149.126,273.526,149.141,273.653z" style="fill:#F56464;"/><path d="M149.237,274.081c-0.042-0.128-0.068-0.258-0.087-0.39   C149.169,273.823,149.195,273.954,149.237,274.081z" style="fill:#F56464;"/><path d="M149.201,272.786c0.03-0.114,0.075-0.223,0.124-0.332   C149.276,272.563,149.231,272.672,149.201,272.786z" style="fill:#F56464;"/><path d="M149.418,274.49c-0.066-0.117-0.117-0.239-0.161-0.364   C149.301,274.251,149.352,274.373,149.418,274.49z" style="fill:#F56464;"/><path d="M149.13,273.217c0.008-0.116,0.031-0.23,0.057-0.344   C149.161,272.986,149.137,273.101,149.13,273.217z" style="fill:#F56464;"/><path d="M158.852,285.079c-0.068-0.03-0.131-0.076-0.196-0.114   C158.722,285.002,158.784,285.048,158.852,285.079z" style="fill:#F56464;"/><path d="M158.433,284.835c-0.096-0.071-0.182-0.159-0.268-0.246   C158.251,284.676,158.337,284.764,158.433,284.835z" style="fill:#F56464;"/><path d="M159.307,285.226c-0.037-0.008-0.071-0.025-0.107-0.034   C159.236,285.201,159.27,285.218,159.307,285.226z" style="fill:#F56464;"/><path d="M149.354,272.375c0.047-0.097,0.109-0.187,0.171-0.277   C149.463,272.188,149.401,272.278,149.354,272.375z" style="fill:#F56464;"/><polygon points="149.906,271.656 149.904,271.657 149.907,271.654  " style="fill:#F56464;"/><path d="M149.589,271.994c0.075-0.098,0.164-0.187,0.257-0.274   C149.753,271.807,149.664,271.896,149.589,271.994z" style="fill:#F56464;"/><path d="M226.29,12.454c0.078-0.033,0.163-0.028,0.243-0.053C226.453,12.426,226.368,12.421,226.29,12.454z" style="fill:#F56464;"/><path d="M227.996,12.424c0.144,0.056,0.266,0.167,0.399,0.253C228.262,12.59,228.141,12.479,227.996,12.424z   " style="fill:#F56464;"/><path d="M237.931,21.798l-0.01-0.009c0.102,0.098,0.152,0.223,0.232,0.333   C238.076,22.014,238.029,21.893,237.931,21.798z" style="fill:#F56464;"/><path d="M227.141,12.273c0.122-0.002,0.239,0.045,0.36,0.062C227.38,12.318,227.263,12.271,227.141,12.273z" style="fill:#F56464;"/><path d="M238.469,24.246c-0.049,0.128-0.15,0.234-0.223,0.354C238.319,24.48,238.421,24.374,238.469,24.246z   " style="fill:#F56464;"/><path d="M238.438,22.536c0.051,0.12,0.052,0.251,0.082,0.377C238.49,22.787,238.489,22.656,238.438,22.536z" style="fill:#F56464;"/><path d="M238.62,23.388c0.002,0.133-0.047,0.261-0.068,0.393C238.573,23.649,238.623,23.521,238.62,23.388z" style="fill:#F56464;"/><path d="M225.548,12.963c-0.001,0.001-0.002,0.003-0.003,0.005c0.082-0.085,0.188-0.125,0.279-0.194   C225.734,12.842,225.629,12.88,225.548,12.963z" style="fill:#F56464;"/><path d="M199.252,11.713c0.124-0.078,0.236-0.181,0.369-0.233C199.487,11.532,199.376,11.634,199.252,11.713   z" style="fill:#F56464;"/><path d="M190.495,21.703c-0.024-0.142-0.07-0.28-0.068-0.424C190.424,21.423,190.47,21.561,190.495,21.703z" style="fill:#F56464;"/><path d="M190.509,20.862c0.03-0.145,0.04-0.294,0.099-0.432C190.549,20.568,190.539,20.716,190.509,20.862z" style="fill:#F56464;"/><path d="M202.058,11.989c-0.102-0.102-0.23-0.151-0.345-0.23c0.12,0.082,0.252,0.141,0.357,0.249   C202.065,12.002,202.063,11.995,202.058,11.989z" style="fill:#F56464;"/><path d="M200.886,11.406c0.148,0.029,0.3,0.037,0.441,0.096C201.186,11.442,201.035,11.435,200.886,11.406z" style="fill:#F56464;"/><path d="M190.81,22.51c-0.079-0.125-0.18-0.24-0.232-0.375C190.63,22.271,190.731,22.385,190.81,22.51z" style="fill:#F56464;"/><path d="M200.031,11.401c0.149-0.028,0.296-0.078,0.447-0.076C200.325,11.323,200.18,11.373,200.031,11.401z   " style="fill:#F56464;"/><path d="M72.41,272.723c7.612,13.131,16.605,15.874,27.768,15.952c0.055,0,0.108,0,0.161,0   c10.925,0,20.336-7.837,26.474-13.744c33.411-32.158,30.719-56.917,27.869-83.131c-1.384-12.727-2.815-25.89,0.229-40.212   c6.379-29.998-5.94-40.654-10.614-43.529l0.521-2.951c0.875-4.221,2.109-6.844,3.669-7.796c0.639-0.389,1.801-0.821,4.449-0.087   c0.681,0.189,1.445,0.644,2.328,1.171c2.436,1.45,5.772,3.437,11.706,2.595c5.783-0.823,8.327-3.814,10.011-5.795   c0.502-0.591,0.937-1.1,1.3-1.368c1.357-1.001,1.357-1.001,2.919-1.001c4.288,0.001,15.451,10.648,20.822,28.04   c0.595,1.926,1.243,4.165,1.406,6.4c0.001,0.03,0.003,0.059,0.006,0.087c4.385,49.541,3.385,94.595-53.527,144.3   c-0.001,0.001-0.002,0.002-0.003,0.003c0,0-0.001,0.001-0.001,0.001c-0.021,0.019-0.037,0.042-0.057,0.061   c-0.093,0.087-0.182,0.176-0.257,0.274c-0.025,0.033-0.041,0.07-0.064,0.104c-0.061,0.09-0.124,0.18-0.171,0.277   c-0.013,0.026-0.018,0.054-0.03,0.08c-0.048,0.109-0.094,0.218-0.124,0.332c-0.008,0.029-0.008,0.058-0.014,0.087   c-0.026,0.114-0.049,0.228-0.057,0.344c-0.001,0.019,0.002,0.037,0.001,0.056c-0.006,0.127-0.005,0.254,0.01,0.381   c0.002,0.013,0.007,0.026,0.009,0.038c0.019,0.132,0.046,0.262,0.087,0.39c0.005,0.015,0.014,0.03,0.02,0.045   c0.044,0.124,0.095,0.247,0.161,0.364c0.009,0.015,0.021,0.028,0.03,0.042c0.069,0.116,0.145,0.229,0.237,0.334   c0.826,0.946,2.262,1.043,3.207,0.218c0.58-0.507,1.119-1.012,1.688-1.518c56.727-50.467,57.671-98.132,53.387-146.565   c0-0.004-0.001-0.009-0.001-0.013c-0.191-2.731-0.927-5.285-1.6-7.463c-5.522-17.881-17.839-31.243-25.179-31.245   c-2.895,0-3.7,0.485-5.604,1.889c-0.787,0.579-1.408,1.308-2.065,2.081c-1.53,1.798-3.113,3.659-7.189,4.237   c-4.335,0.622-6.576-0.71-8.738-2c-1.067-0.635-2.17-1.291-3.437-1.644c-3.268-0.909-5.898-0.715-8.035,0.586   c-2.753,1.68-4.581,5.097-5.766,10.821l-0.82,4.637c-0.184,1.041,0.392,2.08,1.366,2.494c0.67,0.286,16.348,7.36,9.566,39.261   c-3.198,15.036-1.727,28.566-0.303,41.65c2.726,25.073,5.302,48.754-26.501,79.362c-8.721,8.394-16.351,12.474-23.325,12.474   c-0.041,0-0.084,0-0.126,0c-10.133-0.071-17.286-2.334-23.829-13.618c-0.081-0.157-0.536-1.075-0.542-1.078   c-19.003-44.771-6.819-66.888,6.08-90.305c6.336-11.503,12.887-23.397,16.164-38.371c6.209-28.363,23.098-32.066,26.421-32.52   c0.451-0.062,0.959-0.333,1.298-0.638c0.292-0.263,0.54-0.687,0.665-1.058c2.131-6.381,5.284-12.073,9.369-16.922   c3.965-4.701,7.423-7.116,14.354-6.427c2.452,0.241,4.34,1.43,6.009,2.479c2.204,1.384,3.952,2.467,6.894,2.054   c3.792-0.542,5.225-1.598,6.884-2.823c2.213-1.633,4.967-3.663,11.226-3.663c6.268,0.001,12.513,4.125,18.56,12.258   c0.781,1.051,2.134,1.456,3.367,1.021c1.24-0.443,2.034-1.625,1.973-2.939c-0.478-10.753-0.198-19.484,0.881-27.473   c1.806-13.364-0.623-26.72-6.837-37.609c-1.103-1.933-2.23-3.613-3.364-5.049c-0.476-0.603-0.953-1.174-1.431-1.684   c-0.861-0.919-2.3-0.959-3.213-0.105c-0.124,0.116-0.191,0.263-0.283,0.398c-0.085,0.125-0.191,0.237-0.248,0.373   c-0.059,0.138-0.069,0.287-0.099,0.432c-0.029,0.14-0.08,0.275-0.082,0.418c-0.002,0.143,0.044,0.282,0.068,0.424   c0.025,0.146,0.03,0.293,0.084,0.432c0.052,0.135,0.153,0.25,0.232,0.375c0.076,0.121,0.122,0.254,0.224,0.362   c1.374,1.467,2.775,3.444,4.165,5.877c5.722,10.028,7.953,22.367,6.28,34.747c-0.953,7.054-1.305,14.632-1.082,23.559   c-6.082-6.879-12.524-10.361-19.206-10.362c-7.742,0-11.456,2.738-13.914,4.551c-1.489,1.098-2.168,1.6-4.825,1.979   c-1.208,0.179-1.686-0.055-3.835-1.402c-1.883-1.184-4.461-2.808-7.979-3.154c-8.805-0.875-13.682,2.569-18.278,8.021   c-4.199,4.98-7.488,10.763-9.814,17.28c-5.811,1.228-22.645,7.227-28.903,35.818c-3.136,14.329-9.526,25.93-15.705,37.147   c-13.448,24.414-26.152,47.475-6.224,94.407C71.714,271.34,72.376,272.664,72.41,272.723z" style="fill:#333333;"/><path d="M234.706,21.858c-0.528,0.552-1.025,1.108-1.529,1.664c-24.135,26.606-21.243,57.604-17.885,93.386   c4.62,49.22,9.839,104.95-55.305,162.87c-0.567,0.504-1.126,1.008-1.703,1.512c-0.946,0.826-1.043,2.261-0.218,3.207l0,0.001   c0.03,0.035,0.068,0.059,0.1,0.092c0.086,0.087,0.172,0.176,0.268,0.246c0.07,0.051,0.148,0.087,0.223,0.13   c0.066,0.038,0.128,0.084,0.196,0.114c0.112,0.05,0.23,0.082,0.347,0.113c0.036,0.009,0.07,0.027,0.107,0.034   c0.155,0.033,0.314,0.05,0.473,0.05c0.265,0,0.53-0.046,0.783-0.139c0.048-0.017,0.087-0.058,0.134-0.079   c0.201-0.09,0.401-0.189,0.576-0.342l0,0c68.707-59.994,63.308-117.497,58.545-168.233c-3.324-35.418-6.194-66.006,18.174-91.48   c0.114-0.12,0.171-0.267,0.255-0.403c0.073-0.119,0.175-0.226,0.223-0.354c0.058-0.15,0.058-0.309,0.083-0.465   c0.021-0.132,0.07-0.26,0.068-0.393c-0.003-0.162-0.063-0.316-0.1-0.475c-0.03-0.126-0.03-0.256-0.082-0.377   c-0.065-0.152-0.186-0.278-0.285-0.415c-0.08-0.11-0.13-0.236-0.232-0.333c0,0,0-0.001-0.001-0.001l-0.001-0.001   C237.012,20.919,235.574,20.951,234.706,21.858z" style="fill:#333333;"/><path d="M198.803,15.164c0.517,0.541,1.029,1.125,1.538,1.744c3.396,4.132,6.601,9.987,9.545,17.457   c0.428,1.079,1.408,1.789,2.559,1.856c0.056,0.003,0.111,0.004,0.167,0.004c1.075,0,2.081-0.598,2.598-1.56   c3.181-5.925,7.237-11.589,12.057-16.871c0.512-0.562,1.026-1.123,1.556-1.676c0.867-0.904,0.837-2.34-0.064-3.209   c-0.002-0.002-0.002-0.004-0.004-0.006c-0.107-0.102-0.239-0.15-0.359-0.227c-0.133-0.086-0.255-0.197-0.399-0.253   c-0.159-0.061-0.329-0.064-0.495-0.088c-0.121-0.018-0.238-0.064-0.36-0.062c-0.208,0.004-0.408,0.068-0.609,0.128   c-0.08,0.024-0.165,0.02-0.243,0.053c-0.17,0.073-0.314,0.204-0.465,0.32c-0.091,0.07-0.197,0.109-0.279,0.194   c-0.002,0.002-0.004,0.002-0.006,0.004c-4.979,5.195-9.24,10.778-12.695,16.632c-3.274-7.625-6.884-13.531-10.753-17.58   c-0.006-0.007-0.015-0.009-0.021-0.015c-0.105-0.108-0.237-0.167-0.357-0.249c-0.128-0.088-0.245-0.199-0.386-0.258   c-0.141-0.059-0.293-0.067-0.441-0.096c-0.137-0.027-0.269-0.079-0.409-0.081c-0.151-0.002-0.298,0.048-0.447,0.076   c-0.138,0.026-0.278,0.027-0.41,0.079c-0.133,0.052-0.246,0.155-0.369,0.233c-0.125,0.079-0.263,0.13-0.374,0.236   c-0.007,0.006-0.008,0.015-0.015,0.021C197.974,12.841,197.942,14.263,198.803,15.164z" style="fill:#333333;"/></g></svg>