<?xml version="1.0" ?><svg viewBox="0 0 128 128" xmlns="http://www.w3.org/2000/svg"><title/><g id="LinealColor"><path d="M91.65,36.077C79.51,35.246,68.3,47.6,67.8,66.812s5.19,19.251,3.935,28.782c.835,17.961,11.1,29.811,37.741,29.894,15.441.049,13.83-33.954,3.264-59.957C107.969,53.792,101,36.717,91.65,36.077Z" style="fill:#ff788f"/><path d="M109.47,126.988c-25.071-.079-39.8-10.821-39.235-31.325a28.4,28.4,0,0,0-1.206-9.173c-1.343-3.905-3.015-8.765-2.729-19.717.289-11.076,4.157-20.8,10.613-26.669a20.047,20.047,0,0,1,14.839-5.523h0c10.317.706,17.287,17.86,22.376,30.386,7.907,19.458,11.655,46.145,4.241,57.123a10.376,10.376,0,0,1-8.862,4.9ZM91.547,37.573a16.866,16.866,0,0,0-12.615,4.749c-5.854,5.326-9.366,14.267-9.634,24.53-.272,10.409,1.3,14.985,2.567,18.663a20.307,20.307,0,0,1,1.525,8.437,27.765,27.765,0,0,0,.076,4.523c1.943,17.09,13.755,25.443,36.013,25.513h.029a7.315,7.315,0,0,0,6.375-3.577c6.038-8.939,4-33.305-4.534-54.315C106.827,54.969,100,38.152,91.547,37.573Z" style="fill:#452f4c"/><path d="M80.25,66.813c-3.181-4.591-9.718-13.893-13.964-18.692a3.049,3.049,0,0,0-4.57,0C59.043,51.14,54.5,56.325,50.705,60.9a3.71,3.71,0,0,1-6.476-1.544h0a3.7,3.7,0,0,1,.7-3.109c2.757-3.508,9.792-12.619,11.224-14.334,1.583-1.9,2.448-5.557,2.448-8.028V7.818a5.4,5.4,0,0,1,5.4-5.4h0a5.4,5.4,0,0,1,5.4,5.4V33.882c0,2.471.865,6.131,2.448,8.028C73.6,44,81.532,56.81,84.167,59.607c2.329,2.473,9.282,2.678,13.966,4.017a2.119,2.119,0,0,1,1.078,3.34,2.179,2.179,0,0,1-2.054.755c-1.959-.271-7.847-1.012-7.847-1.012-1.169-.172-1.678,1.031-1.163,2.094a75.245,75.245,0,0,0,6.936,10.366c1.427,1.711,11.409,5.193,12.674,5.765a2,2,0,0,1,1.183,2.221,1.926,1.926,0,0,1-2.589,1.367s-7.566-2.89-9.367-3.414c-.953-.278-1.472.486-1.433,1.477.167,4.292,1.823,17.23,2.229,20.23.166,1.224-.09,2.475-1.354,2.844a2.171,2.171,0,0,1-2.557-1.364c-2.109-5.826-2.4-21.043-6.25-30.207a.668.668,0,0,0-1.255.124l-2.92,11.783a1.924,1.924,0,0,1-2.385,1.391h0a1.925,1.925,0,0,1-1.38-2.181S81.626,78.282,81.907,75C82.052,73.3,81.833,68.875,80.25,66.813Z" style="fill:#ffdcdc"/><path d="M95.9,111.231a3.715,3.715,0,0,1-3.444-2.427c-.93-2.568-1.494-6.622-2.148-11.317-.753-5.4-1.59-11.419-3.145-16.277L84.9,90.354a3.425,3.425,0,0,1-6.7-1.405c.022-.118,1.941-10.9,2.213-14.076.148-1.739-.178-5.616-1.352-7.147-.016-.02-.03-.039-.043-.059A228.729,228.729,0,0,0,65.163,49.115a1.584,1.584,0,0,0-2.324,0c-3,3.391-7.339,8.354-10.981,12.742a5.21,5.21,0,0,1-8.111-6.539c.981-1.246,2.5-3.2,4.115-5.276,3.047-3.917,6.2-7.966,7.137-9.091,1.3-1.553,2.1-4.878,2.1-7.067V7.817a6.9,6.9,0,0,1,13.8,0V33.882c0,2.189.8,5.514,2.1,7.066.761.911,2.411,3.407,4.5,6.568,2.8,4.228,6.277,9.492,7.757,11.063,1.215,1.289,4.8,1.924,7.969,2.484,1.812.321,3.686.653,5.317,1.119a3.617,3.617,0,0,1,1.864,5.685A3.664,3.664,0,0,1,96.951,69.2c-1.637-.225-6.02-.78-7.4-.955a74.634,74.634,0,0,0,6.688,9.958c.613.7,4.036,2.246,10.176,4.587.961.366,1.678.641,1.965.77a3.5,3.5,0,0,1,2.026,3.925,3.427,3.427,0,0,1-4.6,2.426c-.054-.02-6.41-2.446-8.743-3.215.191,4.147,1.679,16,2.21,19.911.3,2.243-.623,3.961-2.42,4.486A3.359,3.359,0,0,1,95.9,111.231ZM87.028,76.2A2.136,2.136,0,0,1,89,77.5c2.327,5.54,3.365,12.994,4.281,19.571.605,4.338,1.175,8.437,2,10.708a.689.689,0,0,0,.726.436c.379-.111.344-.8.289-1.2-.4-2.98-2.07-15.97-2.242-20.372a3.052,3.052,0,0,1,1.056-2.584,2.5,2.5,0,0,1,2.3-.393c1.839.537,9.172,3.335,9.484,3.454a.428.428,0,0,0,.592-.3.526.526,0,0,0-.338-.516c-.264-.119-.919-.367-1.8-.7-6.362-2.425-10.268-4.1-11.412-5.469A76.236,76.236,0,0,1,86.8,69.455a3.123,3.123,0,0,1,.191-3.218,2.614,2.614,0,0,1,2.54-1.014h0s5.874.74,7.833,1.009a.739.739,0,0,0,.651-.169.62.62,0,0,0,.119-.593.628.628,0,0,0-.411-.4c-1.482-.423-3.279-.741-5.017-1.048-3.976-.7-7.732-1.369-9.629-3.382C81.419,58.877,78.008,53.72,75,49.17c-1.876-2.837-3.647-5.516-4.3-6.3-1.836-2.2-2.8-6.185-2.8-8.989V7.817a3.9,3.9,0,0,0-7.8,0V33.882c0,2.8-.961,6.791-2.8,8.99-.906,1.085-4.182,5.3-7.072,9.01-1.62,2.082-3.142,4.04-4.125,5.288a2.2,2.2,0,0,0-.413,1.85,2.209,2.209,0,0,0,3.858.919c3.666-4.418,8.028-9.407,11.043-12.814a4.549,4.549,0,0,1,6.816,0,230.251,230.251,0,0,1,14.055,18.8c2,2.638,2.07,7.645,1.937,9.2-.283,3.312-2.166,13.89-2.246,14.339a.425.425,0,0,0,.635.429.411.411,0,0,0,.2-.263l2.92-11.783a2.18,2.18,0,0,1,1.952-1.645C86.916,76.2,86.973,76.2,87.028,76.2Z" style="fill:#452f4c"/><path d="M36.35,36.077C48.49,35.246,59.7,47.6,60.2,66.812s-5.19,19.251-3.935,28.782c-.835,17.961-11.1,29.811-37.741,29.894-15.441.049-13.83-33.954-3.264-59.957C20.031,53.792,27,36.717,36.35,36.077Z" style="fill:#ff788f"/><path d="M18.493,126.988a10.376,10.376,0,0,1-8.862-4.9c-7.414-10.978-3.666-37.665,4.241-57.123,5.089-12.526,12.059-29.68,22.376-30.386h0A20.047,20.047,0,0,1,51.087,40.1C57.543,45.977,61.411,55.7,61.7,66.773c.286,10.952-1.386,15.812-2.729,19.717a28.4,28.4,0,0,0-1.206,9.173c.568,20.5-14.164,31.246-39.235,31.325Zm17.96-89.415c-8.448.579-15.28,17.4-19.8,28.523-8.538,21.01-10.572,45.376-4.534,54.315a7.315,7.315,0,0,0,6.375,3.577h.029c22.258-.07,34.07-8.423,36.013-25.513a27.765,27.765,0,0,0,.076-4.523,20.307,20.307,0,0,1,1.525-8.437c1.264-3.678,2.839-8.254,2.567-18.663-.268-10.263-3.78-19.2-9.634-24.53a16.866,16.866,0,0,0-12.615-4.749Z" style="fill:#452f4c"/></g></svg>