<?xml version="1.0" ?><svg viewBox="0 0 128 128" xmlns="http://www.w3.org/2000/svg"><title/><g id="LinealColor"><path d="M17.765,18.3a6.053,6.053,0,0,0-8.352,2.317,6.235,6.235,0,0,0,2.277,8.192,52.809,52.809,0,0,1,11.378,9.73,1.088,1.088,0,0,1-.82,1.8H16.232a3.906,3.906,0,0,0-3.97,3.56,3.762,3.762,0,0,0,3.757,3.965H26.757a4.618,4.618,0,0,1,4.159,2.609c8.418,17.462,8.547,40.309,4.927,65.55a5.465,5.465,0,0,0,5.4,6.256h0a5.474,5.474,0,0,0,5.433-4.835C53.982,54.929,38.333,30.5,17.765,18.3Z" style="fill:#488def"/><path d="M41.243,123.838a6.966,6.966,0,0,1-6.885-7.969c4.128-28.785,2.605-49.339-4.794-64.685a3.13,3.13,0,0,0-2.807-1.761H16.02a5.287,5.287,0,0,1-3.818-1.64,5.221,5.221,0,0,1-1.438-3.9A5.374,5.374,0,0,1,16.232,38.9h5.1a51.812,51.812,0,0,0-10.446-8.769A7.717,7.717,0,0,1,8.1,19.944a7.559,7.559,0,0,1,4.669-3.655,7.4,7.4,0,0,1,5.758.777C35.147,26.926,56.3,48.083,48.166,117.678A6.97,6.97,0,0,1,41.243,123.838ZM16.232,41.9a2.409,2.409,0,0,0-2.472,2.138,2.262,2.262,0,0,0,2.26,2.387H26.757a6.15,6.15,0,0,1,5.51,3.458c7.67,15.909,9.277,37.012,5.061,66.413a3.988,3.988,0,0,0,.932,3.183,3.963,3.963,0,0,0,6.926-2.148C53.116,49.469,32.9,29.08,17,19.646a4.443,4.443,0,0,0-3.445-.461,4.585,4.585,0,0,0-2.83,2.218A4.715,4.715,0,0,0,12.5,27.6,54.613,54.613,0,0,1,24.2,37.607,2.588,2.588,0,0,1,22.249,41.9Z" style="fill:#452f4c"/><path d="M70.224,27.384C63.4,50.05,81.16,62.234,100.556,60.938,104.249,46.388,97.716,24.784,70.224,27.384Z" style="fill:#8c4478"/><path d="M100.748,54.77c-9.83-10.5-17.162-9.024-21.62-17.3L33.935,45.614c-13.121,17.635-6.17,39.005,2.45,50.126C49,112.014,68.82,123.719,86.441,125.3c11.464,1.027,14.865-4.225,16.721-7.824,2.118-4.107.991-9.537,2.394-24.222C106.122,87.326,111.94,66.727,100.748,54.77Z" style="fill:#ff5787"/><path d="M65.458,19.8a2.1,2.1,0,0,1-1.786-2.532A50.219,50.219,0,0,1,67.2,7.6a3.63,3.63,0,0,0-1.528-4.675l-.078-.043A3.628,3.628,0,0,0,60.6,4.414a42.27,42.27,0,0,0-4.39,14.505,2.112,2.112,0,0,1-4.121.327,58.947,58.947,0,0,1-1.549-8.13,3.631,3.631,0,0,0-3.785-3.142l-.088,0a3.629,3.629,0,0,0-3.408,3.958,42.333,42.333,0,0,0,2.481,11.01,2.1,2.1,0,0,1-.722,2.41,2.169,2.169,0,0,1-3.2-.682c-.8-1.441-1.414-2.718-1.86-3.592a3.629,3.629,0,0,0-4.591-1.762l-.083.033A3.627,3.627,0,0,0,33.328,24.2a42.447,42.447,0,0,0,3.992,7.122,2.065,2.065,0,0,1,.058,2.275c-4.836,7.65-5.984,17.264.262,25.334l36.833-36.24A29.039,29.039,0,0,0,65.458,19.8Z" style="fill:#8c4478"/><path d="M89.382,14.44a5.973,5.973,0,0,0-7.04-5.425c-10.8,2.133-17.858,10.03-20.593,21.729a3.135,3.135,0,0,1-2.291,2.312C50.325,35.352,43.1,42.9,39.738,51.1,32.9,67.775,42.689,83.95,51.413,94.467l27.715-57c-2.655-8.461,1.226-14.664,6.355-16.748a6.105,6.105,0,0,0,3.911-6.132Z" style="fill:#ff5787"/><path d="M102.948,55.086c.669-12.655-5.809-26.037-21.857-28.817a10.91,10.91,0,0,1,5.086-4.153,7.584,7.584,0,0,0,4.713-6.652,7.93,7.93,0,0,0-.013-1.089c0-.009-.054-.5-.1-.736A7.559,7.559,0,0,0,87.9,8.956,7.366,7.366,0,0,0,82.051,7.6,25.786,25.786,0,0,0,65.5,18.35a.461.461,0,0,1-.373-.181.265.265,0,0,1-.051-.223,44.508,44.508,0,0,1,3.192-9l.3-.673a5.133,5.133,0,0,0-2.251-6.64,5.127,5.127,0,0,0-7.052,2.16,43.592,43.592,0,0,0-4.547,15.022.593.593,0,0,1-.44.49.606.606,0,0,1-.747-.406,52.423,52.423,0,0,1-1.4-7.2l-.1-.738a5.136,5.136,0,0,0-5.443-4.418,5.128,5.128,0,0,0-4.816,5.587,43.851,43.851,0,0,0,2.575,11.419.591.591,0,0,1-.236.68.65.65,0,0,1-.533.115.629.629,0,0,1-.425-.314c-.609-1.1-1.114-2.109-1.514-2.907l-.333-.659a5.135,5.135,0,0,0-6.572-2.44,5.128,5.128,0,0,0-2.77,6.836,43.916,43.916,0,0,0,4.226,7.507.32.32,0,0,1,.017.346,26.046,26.046,0,0,0-4.324,13.279c-11.624,16.9-6.466,38.1,3.326,50.728,12.931,16.682,32.992,28.51,51.108,30.133,1.037.092,2.013.136,2.936.136,9.432,0,13.106-4.609,15.251-8.768,1.423-2.759,1.535-5.917,1.721-11.149.122-3.465.275-7.777.833-13.617.081-.85.29-2.1.532-3.539C108.909,81.982,111.609,65.813,102.948,55.086Zm-2.985-3.163a44.846,44.846,0,0,0-11.484-7.61C84.488,42.305,81.348,40.95,79.847,37a11.813,11.813,0,0,1-.1-7.91C94.11,31.159,99.516,41.93,99.963,51.923ZM38.725,34.329a3.3,3.3,0,0,0-.086-3.683A40.917,40.917,0,0,1,34.7,23.652a2.139,2.139,0,0,1-.027-1.681,2.162,2.162,0,0,1,1.256-1.2,2.128,2.128,0,0,1,2.694,1.051l.325.645c.414.826.937,1.868,1.568,3.011a3.638,3.638,0,0,0,2.418,1.8,3.677,3.677,0,0,0,2.992-.667A3.591,3.591,0,0,0,47.15,22.5a40.855,40.855,0,0,1-2.4-10.637,2.165,2.165,0,0,1,4.3-.474l.1.721a54.954,54.954,0,0,0,1.49,7.6,3.617,3.617,0,0,0,4.428,2.477A3.574,3.574,0,0,0,57.7,19.15,40.564,40.564,0,0,1,61.933,5.159,2.137,2.137,0,0,1,63.22,4.078a2.167,2.167,0,0,1,1.723.219,2.129,2.129,0,0,1,.882,2.754l-.3.658a47.1,47.1,0,0,0-3.394,9.626,3.249,3.249,0,0,0,.548,2.58,3.411,3.411,0,0,0,1.215,1.03,36.688,36.688,0,0,0-3.636,9.63,1.517,1.517,0,0,1-1.171,1.087C50.168,33.9,42.22,41.157,38.35,50.589A33.538,33.538,0,0,0,36.9,55.008C33.7,48.747,34.3,41.255,38.725,34.329Zm65.9,55.09c-.261,1.561-.468,2.8-.559,3.749-.566,5.93-.721,10.292-.845,13.8-.176,4.977-.274,7.718-1.389,9.88-1.445,2.8-4.137,8.013-15.254,7.018-17.324-1.551-36.559-12.927-49-28.982-8.5-10.972-13.294-28.817-5.253-43.858a21.637,21.637,0,0,0,3.759,8.352A34.656,34.656,0,0,0,36.04,66.9a12.915,12.915,0,0,1-1.332,5.776c-1.118,2.755-2.385,5.877-.576,10.552a1.5,1.5,0,0,0,2.8-1.083c-1.348-3.482-.521-5.675.487-8.162,2.634,9.183,8.068,17.034,12.267,22.1a1.5,1.5,0,0,0,2.309-1.915,70.552,70.552,0,0,1-6.863-9.831,32.754,32.754,0,0,1,6.387,3.285c2.57,1.612,4.791,3,9.083,3.055h.018a1.5,1.5,0,0,0,.017-3c-3.448-.041-5.07-1.058-7.525-2.6a34.986,34.986,0,0,0-9.976-4.542c-3.988-8.343-6.225-18.531-2.009-28.808,3.516-8.568,10.681-15.142,18.768-17.175a4.439,4.439,0,0,0,3.293-3.3,34.08,34.08,0,0,1,3.274-8.8c.3-.548,1.451-2.357,1.654-2.641a22.666,22.666,0,0,1,14.518-9.265,4.3,4.3,0,0,1,3.458.806A4.583,4.583,0,0,1,87.8,14.034a6.909,6.909,0,0,1-.063,2.237,4.475,4.475,0,0,1-2.651,3.05C79.026,21.685,74.334,28.659,76.87,37.5c.032.114.316.9.377,1.024,2.2,4.6,5.769,6.395,9.884,8.466a39.907,39.907,0,0,1,12.522,8.862C108.634,65.451,106.024,81.043,104.622,89.419Z" style="fill:#452f4c"/><path d="M93.894,74.609c-1.084-1.484-2.269-3.1-3.405-4.852-.016-.028-.034-.054-.052-.081a36.505,36.505,0,0,1-4.043-8.046,15.558,15.558,0,0,0,3.879,1.116c2.6.5,4.473.858,5.331,3.819a1.5,1.5,0,0,0,1.44,1.083,1.519,1.519,0,0,0,.418-.06,1.5,1.5,0,0,0,1.023-1.858C97.116,61,93.635,60.336,90.838,59.8c-2.55-.489-4.564-.876-5.6-3.831l-.01-.02a19.312,19.312,0,0,1,.34-5.107,1.5,1.5,0,1,0-2.939-.6c-1.659,8.158,1.592,15.284,5.182,20.885,1.072,3.175.6,5.844.085,8.666-.607,3.351-1.235,6.816.707,11.066a1.5,1.5,0,1,0,2.728-1.247c-1.551-3.394-1.056-6.123-.483-9.284a35.81,35.81,0,0,0,.558-4.039l.524.718c6.587,9.04,4.892,21.64,3.982,28.409-.123.916-.23,1.71-.3,2.359a1.5,1.5,0,0,0,1.338,1.647c.052,0,.1.008.156.008a1.5,1.5,0,0,0,1.49-1.346c.065-.624.168-1.388.286-2.268.9-6.674,2.765-20.563-4.53-30.575Z" style="fill:#452f4c"/></g></svg>