<?xml version="1.0" ?><svg viewBox="0 0 512 512" xmlns="http://www.w3.org/2000/svg"><title/><g id="flat"><path d="M446.232,439.9l-40-124.932-17.27-72.832a79.783,79.783,0,0,0-77.631-61.376H280V152l32-8V104l16-8L314.494,75.741a20.946,20.946,0,0,1-3.233-8.176h0A52.138,52.138,0,0,0,259.835,24h-6.688a50.219,50.219,0,0,0-43.6,25.3l-.4.707a69.145,69.145,0,0,0-3.589,61.608C210.991,124.312,216,136,216,136l.348,44.755H198.9a79.783,79.783,0,0,0-77.631,61.376L104,314.963,64,439.9,38.232,456,40,488H88l56-112,40-88-8,135.4L168,488H344l-8-64.6L328,288l38.232,88,56,112h48L472,456Z" style="fill:#f6bb92"/><path d="M208,341v81a26,26,0,0,0,26,26h38V416H240V341Z" style="fill:#d78e0c"/><rect height="56" style="fill:#86292e" width="32" x="240" y="360"/><path d="M272,344v72h-6a26,26,0,0,0-26,26v46h32V448h6a26,26,0,0,0,26-26V351.261Z" style="fill:#ecab2c"/><path d="M240,304v61.333A26.667,26.667,0,0,0,266.667,392h0A26.666,26.666,0,0,0,288,381.333l10.757-14.342A26.219,26.219,0,0,0,304,351.261h0a26.215,26.215,0,0,0-3.736-13.488L280,304Z" style="fill:#5ca4d9"/><path d="M312,112H272.529a24.053,24.053,0,0,0-24,23.878l-.507,99.826-24.787,16.525a8,8,0,0,0,8.875,13.312L256,249.615l23.89,15.926a8,8,0,0,0,8.875-13.312l-24.743-16.5.507-99.774a8.018,8.018,0,0,1,8-7.959H312Z" style="fill:#86292e"/><path d="M298.348,232h0a18.349,18.349,0,0,1,17.575,13.076l16.063,53.545a16.608,16.608,0,0,1-8.479,19.626h0A16.608,16.608,0,0,1,316.08,320H293.935A13.935,13.935,0,0,1,280,306.065V250.348A18.348,18.348,0,0,1,298.348,232Z" style="fill:#c92535"/><path d="M213.652,232h0a18.349,18.349,0,0,0-17.575,13.076l-16.063,53.545a16.608,16.608,0,0,0,8.479,19.626h0A16.608,16.608,0,0,0,195.92,320h22.145A13.935,13.935,0,0,0,232,306.065V250.348A18.348,18.348,0,0,0,213.652,232Z" style="fill:#c92535"/><path d="M233.959,306.538H272a0,0,0,0,1,0,0v11.4a17.172,17.172,0,0,1-17.172,17.172H233.959a14.287,14.287,0,0,1-14.287-14.287v0A14.287,14.287,0,0,1,233.959,306.538Z" style="fill:#5292c1"/><path d="M241.872,288h25.135A12.993,12.993,0,0,1,280,300.993h0a12.994,12.994,0,0,1-10.857,12.817L243.5,318.084a9.872,9.872,0,0,1-11.5-9.738V297.872A9.872,9.872,0,0,1,241.872,288Z" style="fill:#b5cf7f"/><path d="M220,320h0a20,20,0,0,1,20,20v0a20,20,0,0,1-20,20h0a12,12,0,0,1-12-12V332a12,12,0,0,1,12-12Z" style="fill:#86292e" transform="translate(448 680) rotate(-180)"/><path d="M284,320h0a20,20,0,0,1,20,20v0a20,20,0,0,1-20,20h0a12,12,0,0,1-12-12V332A12,12,0,0,1,284,320Z" style="fill:#86292e"/></g></svg>