<?xml version="1.0" ?><svg viewBox="0 0 48 48" xmlns="http://www.w3.org/2000/svg"><defs><style>.cls-1{fill:#db5669;}.cls-2{fill:#f26674;}.cls-3{fill:#c4455e;}</style></defs><title/><g data-name="small intestine" id="small_intestine"><path class="cls-1" d="M44.49,23.19A6.78,6.78,0,0,0,44,27a5,5,0,0,1-2.59,4.36A5,5,0,0,1,40,39.6a5,5,0,0,1-8.09,4.29,2.65,2.65,0,0,0-2.82-.34c-2.56,1.2-3.59-.51-5.31.62a5,5,0,0,1-6.13-.51A3.19,3.19,0,0,0,15,43a5,5,0,0,1-4-2,19.67,19.67,0,0,0,1.3,6h-6A19.65,19.65,0,0,1,5,41a5,5,0,0,1,.36-8.26c1.21-.78,1.06,0,.31-1.25A4.84,4.84,0,0,1,5,28.44C5.39,25.35,3,25,3,22a5,5,0,0,1,2-4,5,5,0,0,1,3.51-8C12.09,9.66,13,7.59,15,8c5,1,4-1,8-1a5,5,0,0,1,4.63,3.14c.58,1.33-.2,1.08,1.11.42a4.8,4.8,0,0,1,3.36-.43,1,1,0,0,0,1.18-.9A19.24,19.24,0,0,0,32,1h6a19.25,19.25,0,0,1,1.22,8.79,1,1,0,0,0,.41,1,4.94,4.94,0,0,1,2.16,5.6A5,5,0,0,1,44.49,23.19Z"/><path class="cls-2" d="M44.49,23.19A6.78,6.78,0,0,0,44,27a5,5,0,0,1-2.59,4.36,5,5,0,0,1-1,8c-.64.34-.41.08-.41.62a5,5,0,0,1-5,5c-2.19,0-3-1.21-3.81-1.51-1.73-.72-2.72.89-5,.44a2.93,2.93,0,0,0-2.4.18A5,5,0,0,1,21,45c-2.89,0-3.37-2.14-5.38-2A5,5,0,0,1,11,41a19.52,19.52,0,0,0,.65,4H9.28a2,2,0,0,1-2-1.62A18,18,0,0,1,7,41a5,5,0,0,1,1.26-8.7C5.82,29.6,8.17,27.82,6,25a4.93,4.93,0,0,1-.48-5.21A5.19,5.19,0,0,1,7,18c-.86-1.15-1.5-3.21-.6-4.35,3-3.78,4.14-1.62,8.24-4.1A3.26,3.26,0,0,1,17,9c5,1,2-1,6-1a5,5,0,0,1,4.91,4.1,11.5,11.5,0,0,1,6.19-1,1,1,0,0,0,1.18-.9A26.62,26.62,0,0,0,34,1h4a19.25,19.25,0,0,1,1.22,8.79,1,1,0,0,0,.41,1,4.94,4.94,0,0,1,2.16,5.6A5,5,0,0,1,44.49,23.19Z"/><path class="cls-3" d="M40,39.6a3.14,3.14,0,0,1,0,1c-4.1.7-7.58-1.35-10.17-4.62a1,1,0,0,0-1.52,0,11.72,11.72,0,0,1-7.1,4c-4.63.77-8.08-3-9.9-5.63-2.17.22-5.45-.68-5.88-1.6,1.21-.78,1.06,0,.31-1.25a1,1,0,0,1,1.11-.05,7.21,7.21,0,0,0,5.45.66c2-.68,3.63-2.53,4.81-5.49a1,1,0,0,1,1.86.74c-1.33,3.32-3.21,5.48-5.58,6.45,1.49,2,4.2,4.75,7.48,4.19,5.52-.92,5.39-4.41,8.24-4.38a3,3,0,0,1,2.29,1.13c1.73,2.18,4.6,4.63,8.4,3.86a1,1,0,0,1,1.07.5A4.59,4.59,0,0,1,40,39.6Z"/><path class="cls-3" d="M36.45,34.83A8.44,8.44,0,0,1,33,28c0-3.44-3.62-6-7.29-2.29-2.6,2.57.13,5.93-6.16,10.12a1,1,0,0,1-1.1-1.66c5.65-3.77,2.47-6.29,5.71-9.73-1.18-2.15-3.28-5-6-4.46-4.18.84-2.29,7.82-7,9A1,1,0,0,1,10.76,27c3.09-.78,1.46-7.89,7-9a5.23,5.23,0,0,1,2.33.05c.3-1.72-.95-3.58-2.89-3.1-2.72.67-9.29,8.46-12.95,3.71.94-1.12.9-.16.21-1.53a1,1,0,0,1,1.32.25c2.23,3,7.66-3.54,10.94-4.37,3.51-.88,6.14,2.54,5.23,5.86a12,12,0,0,1,3.72,4.23C30.32,20,35,23.33,35,28a6.43,6.43,0,0,0,2.56,5.17A1,1,0,0,1,36.45,34.83Z"/><path class="cls-3" d="M42.07,32.11C40.4,33.51,37,28.37,37,23c0-4.75-7.32-.92-10.71-4.29-3.14-3.15.67-8,.84-8.23a1,1,0,0,1,.5-.34c.58,1.33-.2,1.08,1.11.42a1,1,0,0,1,0,1.16s-2.87,3.69-1,5.57C30.22,19.8,39,15.94,39,23c0,5.69,3,7.48,3.22,7.79C41.19,31.73,41.18,30.9,42.07,32.11Z"/><path class="cls-3" d="M42.68,16.8c-.49,1.05-4.36,1.95-8.28-1a1,1,0,0,1,1.2-1.6c3.36,2.52,5.6,1.33,5.69,1.28a1,1,0,0,1,.69-.1C41.84,16.89,41.39,16,42.68,16.8Z"/><path d="M46,21a6,6,0,0,0-3.06-5.22,6,6,0,0,0-2.73-5.87A20,20,0,0,0,38.92.61a1,1,0,0,0-1.84.78,18.34,18.34,0,0,1,1.15,8.28,2,2,0,0,0,.88,1.93,3.93,3.93,0,0,1,1.82,4c-.77.25-2.7.54-5.33-1.43a1,1,0,0,0-1.2,1.6c2.15,1.62,4.89,2.57,7.38,1.65A4,4,0,0,1,44,21c0,2-1.41,2.41-1,5.56a3.93,3.93,0,0,1-1.49,3.55c-.84-.85-2.48-3-2.48-7.11,0-7.1-8.77-3.19-11.29-5.71-1.71-1.7.45-4.85.9-5.46,2.23-1.7,3.45,0,4.84-1.05a2,2,0,0,0,.82-1.47A20.09,20.09,0,0,0,32.92.61a1,1,0,0,0-1.84.78,19,19,0,0,1,1.25,7.76,5.86,5.86,0,0,0-3.85.42c-1.39-3.12-5.11-4.63-9.14-2.77-3.21,1.47-4.14-1-7.2.9S8,8.53,5.81,10a5.89,5.89,0,0,0-2.09,7.83,6,6,0,0,0-.45,7.86c1.65,2.09-.14,3.39,1.52,6.28a6,6,0,0,0-.73,9.57,20.17,20.17,0,0,0,1.35,5.87,1,1,0,0,0,1.31.53c1.56-.66-.41-2-.69-7a1,1,0,0,0-.41-.74,4,4,0,0,1,.64-6.79,9.3,9.3,0,0,0,5,.93c1.82,2.67,5.27,6.4,9.9,5.63a11.72,11.72,0,0,0,7.1-4,1,1,0,0,1,1.52,0c2.31,2.92,5.42,5,9.14,4.73a4,4,0,0,1-6.43,2.38,3.66,3.66,0,0,0-3.87-.46c-2.29,1-3.3-.73-5.44.69a4,4,0,0,1-4.89-.41,3.73,3.73,0,0,0-2.93-1,4,4,0,0,1-3.54-1.57,1,1,0,0,0-1.8.66,20.51,20.51,0,0,0,1.38,6.32,1,1,0,0,0,1.84-.78,18.2,18.2,0,0,1-.92-3.25c2.52,1.27,3.54,0,4.6,1a6.07,6.07,0,0,0,7.36.6,1.6,1.6,0,0,1,1.25-.19c3.23.85,4.24-1.34,5.7-.15A6,6,0,0,0,41,40.2a6,6,0,0,0,1.89-8.65A6,6,0,0,0,45,26.31C44.66,23.84,46,23.51,46,21ZM39.65,38.64c-3.75.7-6.58-1.72-8.29-3.88a3,3,0,0,0-4.62-.07A9.64,9.64,0,0,1,20.83,38c-3.28.56-6-2.2-7.48-4.19,2.37-1,4.25-3.13,5.58-6.45a1,1,0,0,0-1.86-.74C14.76,32.41,10.76,33.52,7,31.54a3.9,3.9,0,0,1-.92-3C6.44,25,4,24.64,4,22a3.91,3.91,0,0,1,1-2.6C7.57,21.52,11.17,19,13.87,17c2-1.44,4.17-3.22,5.69-1.27a3,3,0,0,1,.57,2.33A5.23,5.23,0,0,0,17.8,18c-5.56,1.11-4,8.24-7,9A1,1,0,0,0,11.24,29c4.7-1.17,2.75-8.15,7-9,2.68-.54,4.78,2.31,6,4.46-3.24,3.44-.07,6-5.71,9.73a1,1,0,0,0,1.1,1.66c6.31-4.2,3.56-7.52,6.16-10.12,1.64-1.65,3.37-2.21,4.87-1.59A4.22,4.22,0,0,1,33,28a8.44,8.44,0,0,0,3.45,6.83,1,1,0,0,0,1.11-1.66A6.43,6.43,0,0,1,35,28c0-4.6-4.64-8-9.29-4.88A12,12,0,0,0,22,18.89c.92-3.3-1.71-6.74-5.23-5.86-3.25.81-8.71,7.36-10.94,4.37A3.9,3.9,0,0,1,6.9,11.66c1.7-1.1,2.91-.2,6.28-2.26,2.09-1.27,3.27.92,7-.79,3.15-1.44,5.93-.22,6.65,2.29-.88,1.27-3.18,5.15-.53,7.81C29.67,22.08,37,18.25,37,23c0,6,3.12,8.65,3.75,9.11A4,4,0,0,1,39.65,38.64Z"/></g></svg>