<?xml version="1.0" ?><svg viewBox="0 0 128 128" xmlns="http://www.w3.org/2000/svg"><title/><g id="LinealColor"><path d="M57.868,124.576h0a3.993,3.993,0,0,1-4-3.846c-.3-8.425-.29-28.735,5.99-41.026,7.182-14.056,6.435-27.3,5.2-36.268-.874-6.327-5.257-18.027-8.557-24.83a4.282,4.282,0,0,1,2.05-5.737h0a4.291,4.291,0,0,1,5.719,2.091c2.791,6.046,7.845,18.021,9.076,27.86,1.772,14.154.388,24.313-5.435,37.7-4.5,10.351-6.235,26.951-6.048,40.019A3.989,3.989,0,0,1,57.868,124.576Z" style="fill:#488def"/><path d="M74.932,121.448l.07-.008a4.048,4.048,0,0,0,3.512-4.742c-1.732-9.533-2.434-16.913-1.672-23.287,1.3-10.889,5.66-18.843,6.619-29.585C84.63,50.738,80.78,40.5,87.44,21.545a4.154,4.154,0,0,0-2.657-5.331l-.109-.034A4.156,4.156,0,0,0,79.5,18.664c-6.508,17.861-3.351,34.435-3.82,44.481-.559,11.973-5.442,18.243-6.889,29.793-.783,6.247-.041,14.04,1.672,25.116A4.047,4.047,0,0,0,74.932,121.448Z" style="fill:#cc336e"/><path d="M57.867,126.076a5.475,5.475,0,0,1-5.495-5.292c-.3-8.345-.307-29.12,6.153-41.763,7.009-13.715,6.238-26.76,5.047-35.379-.811-5.874-5.009-17.349-8.42-24.381a5.792,5.792,0,1,1,10.482-4.93c2.9,6.286,7.953,18.32,9.2,28.3,1.823,14.567.319,25-5.549,38.482C64.651,91.771,63.2,109,63.364,120.514a5.489,5.489,0,0,1-5.5,5.562ZM60.372,13.962a2.806,2.806,0,0,0-2.637,1.868,2.732,2.732,0,0,0,.117,2.121c3.5,7.209,7.814,18.923,8.693,25.28C67.79,52.252,68.59,65.917,61.2,80.387c-6.139,12.015-6.12,32.178-5.827,40.289a2.5,2.5,0,0,0,4.28,1.655,2.455,2.455,0,0,0,.714-1.774c-.177-12.38,1.351-29.558,6.173-40.639,5.628-12.936,7.07-22.939,5.322-36.912-1.2-9.58-6.122-21.29-8.95-27.417a2.8,2.8,0,0,0-2.537-1.627Z" style="fill:#452f4c"/><path d="M74.449,122.976a5.523,5.523,0,0,1-5.467-4.693c-1.617-10.458-2.521-18.8-1.677-25.532a69.471,69.471,0,0,1,3.44-13.8c1.616-4.913,3.143-9.554,3.439-15.877.117-2.521,0-5.449-.133-8.839-.376-9.514-.892-22.545,4.042-36.086a5.631,5.631,0,0,1,7.034-3.4l.119.038a5.654,5.654,0,0,1,3.609,7.254c-4.426,12.6-4.112,21.251-3.807,29.618a94.957,94.957,0,0,1-.093,12.3,78.877,78.877,0,0,1-3.388,15.546,84.942,84.942,0,0,0-3.236,14.083c-.692,5.8-.2,12.628,1.658,22.842a5.546,5.546,0,0,1-4.814,6.5l-.071.008h0A5.794,5.794,0,0,1,74.449,122.976Zm8.933-105.5a2.608,2.608,0,0,0-2.471,1.7c-4.731,12.985-4.249,25.158-3.862,34.94.137,3.459.255,6.446.131,9.1C76.865,69.947,75.2,75,73.6,79.89a67.117,67.117,0,0,0-3.314,13.234c-.8,6.385.087,14.492,1.666,24.7a2.534,2.534,0,0,0,2.812,2.133l.039,0a2.547,2.547,0,0,0,2.24-2.986c-1.912-10.526-2.416-17.623-1.685-23.734a87.3,87.3,0,0,1,3.335-14.57,75.452,75.452,0,0,0,3.279-14.971,92.584,92.584,0,0,0,.083-11.923c-.315-8.646-.64-17.586,3.975-30.721a2.653,2.653,0,0,0-1.7-3.4l-.106-.034A2.77,2.77,0,0,0,83.382,17.479Z" style="fill:#452f4c"/><path d="M67.471,84.808c5.8-.253,8.819-.463,13.079-4.642a6.579,6.579,0,0,1,2.28-1.445c6.951-2.632,12.9-13.336,32.558-18.509,4.059-.51,10.882-3.567,10.227-10.019-.142-1.4-.739-5.484-6.063-7.4-10.025-3.6-31.541-6.668-45.593-4.347-20.366,3.365-19.424-5.118-35.792-.808-8.88,1.853-23.781,7.637-23.349,29.961.168,8.685,7.456,19.633,15.6,22.79,6.642,2.576,11.2,4.952,16.093,3.769C54.682,92.183,55.091,85.347,67.471,84.808Z" style="fill:#ffb255"/><path d="M108.022,107.043c-.511-5.63-3.484-10.521-5.46-12.378a15.321,15.321,0,0,1-2.6-3.216c-1.6-2.632-6.276-5.907-12.889-6.834a12.474,12.474,0,0,1-3.74-1.158c-9.592-4.686-23.107-.866-27.508,2.584l.082-.06c-6.8,4.08-17.825,2.6-20.829-.988a11.5,11.5,0,0,0-3.638-2.909c-5.989-2.994-6-9.147-6.22-13.5A5.546,5.546,0,0,0,24.69,66.6c-1.9-4.022,2.4-6.585,1.716-10.73a9.87,9.87,0,0,1,.329-4.83,8.58,8.58,0,0,1,6.543-5.625c2.912-.626,5.7-3.351,7.6-5.089A6.2,6.2,0,0,1,44.5,38.937c6.332,0,12.1-2.823,11.449-10.181-.836-9.5-9.122-11.506-14.6-9.734a17.669,17.669,0,0,1-4.282.728,22.485,22.485,0,0,0-11.9,4.5,4.908,4.908,0,0,1-1.558.888C18.1,27.033,11.22,32.4,9.776,37.863a6.49,6.49,0,0,1-.414,1.142c-2,3.831-6.154,10.474-5.026,18.015a7.253,7.253,0,0,1-.357,3.442c-2,5.781-1.711,19.381,3.481,26.3a9.248,9.248,0,0,1,1.3,2.461c1.395,3.908,6.59,10.767,12.332,13.193a8.224,8.224,0,0,1,1.718,1.006,28.023,28.023,0,0,0,19.239,5.279,4.591,4.591,0,0,1,1.378.089c6.571,1.423,14.639.561,20.638-3.138a7.071,7.071,0,0,1,3.868-.909c4.637.076,6.241-2.012,9.737-1.9a14.684,14.684,0,0,1,12.5,8.939c1.973,4.744,7.838,6.039,11.018,4.926C104.151,115.67,108.616,113.6,108.022,107.043Z" style="fill:#ff5082"/><path d="M127.107,50.041a9.957,9.957,0,0,0-7.046-8.656C109.179,37.473,87.469,34.7,73.715,36.97c-9.613,1.586-14.162.5-18.428-.639a10.12,10.12,0,0,0,2.157-7.707c-.475-5.409-3.126-8.235-5.265-9.652A13.4,13.4,0,0,0,40.885,17.6a15.985,15.985,0,0,1-3.92.657c-3.787.252-9.2,1.849-12.77,4.848a3.4,3.4,0,0,1-1.082.617c-6.03,2.081-13.21,7.8-14.787,13.76a20.487,20.487,0,0,1-.944,2.054c-2.237,4.155-5.618,10.433-4.529,17.71a5.808,5.808,0,0,1-.291,2.729C.414,66.169.794,80.376,6.26,87.665A7.829,7.829,0,0,1,7.344,89.73c1.5,4.2,6.907,11.429,13.162,14.072a6.671,6.671,0,0,1,1.4.825A29.433,29.433,0,0,0,42.176,110.2a3.173,3.173,0,0,1,.93.061c7.461,1.614,15.793.342,21.743-3.327a5.455,5.455,0,0,1,3.057-.686,16.213,16.213,0,0,0,6.078-1.141,9.468,9.468,0,0,1,3.637-.763,13.222,13.222,0,0,1,11.159,8.015c1.8,4.324,6.284,6.219,9.99,6.219a8.891,8.891,0,0,0,2.908-.453c2.123-.742,8.583-3,7.838-11.217a22.76,22.76,0,0,0-5.926-13.335,13.848,13.848,0,0,1-2.348-2.9c-1.844-3.037-6.876-6.547-13.963-7.541a10.952,10.952,0,0,1-3.29-1.02,21.041,21.041,0,0,0-2.3-.942,5.05,5.05,0,0,1,1.673-1.043c2.637-1,5.072-3,7.891-5.316,5.045-4.146,11.948-9.819,24.426-13.121C120.533,61.037,127.848,57.333,127.107,50.041ZM82.673,84.805A14,14,0,0,0,86.862,86.1c6.493.911,10.623,4.163,11.816,6.127a16.835,16.835,0,0,0,2.857,3.531,19.762,19.762,0,0,1,4.992,11.421c.47,5.172-2.529,6.956-5.84,8.113-2.583.907-7.545-.262-9.137-4.086a16.131,16.131,0,0,0-13.836-9.861c-.105,0-.208,0-.31,0a12.483,12.483,0,0,0-4.421.938,13.1,13.1,0,0,1-5.029.969,8.576,8.576,0,0,0-4.68,1.132c-5.316,3.277-12.8,4.405-19.531,2.949a6.02,6.02,0,0,0-1.825-.117A26.48,26.48,0,0,1,23.7,102.225a9.6,9.6,0,0,0-2.031-1.187c-5.187-2.191-10.195-8.649-11.5-12.314a10.777,10.777,0,0,0-1.51-2.859C3.94,79.571,3.434,66.616,5.4,60.953A8.788,8.788,0,0,0,5.819,56.8c-.94-6.291,2.156-12.04,4.2-15.845a14.338,14.338,0,0,0,1.205-2.708c1.495-4.706,7.671-9.9,12.865-11.692A6.387,6.387,0,0,0,26.127,25.4c3.028-2.548,7.845-3.937,11.037-4.149a18.8,18.8,0,0,0,4.645-.8,10.493,10.493,0,0,1,8.712,1.024c2.313,1.532,3.637,4.026,3.935,7.415A7.176,7.176,0,0,1,52.831,34.6c-1.675,1.83-4.632,2.837-8.327,2.837h0a7.7,7.7,0,0,0-4.636,1.783l-.429.4c-1.761,1.62-4.171,3.84-6.473,4.334a10.083,10.083,0,0,0-7.631,6.562,11.5,11.5,0,0,0-.405,5.6A6.917,6.917,0,0,1,23.94,60.2c-.865,1.88-1.942,4.218-.615,7.028a7.673,7.673,0,0,1,.425,2.049c.364,4.332.52,10.9,7.018,14.153a9.933,9.933,0,0,1,3.158,2.53c3.4,4.065,14.4,5.55,21.73,1.872.26-.131,1.826-1.132,2.178-1.344C62.729,83.542,74.274,80.7,82.673,84.805Zm32.541-26.083-.21.041c-13.168,3.465-20.386,9.4-25.656,13.727-2.723,2.238-4.873,4-7.05,4.828a12.807,12.807,0,0,0-2.414,1.589,5.163,5.163,0,0,1-3.706,1.045c-8.546-.9-17.334,2.255-21.133,4.8-5.968,3.991-16.372,2.206-18.82-.719a12.927,12.927,0,0,0-4.116-3.286,8.539,8.539,0,0,1-4.506-5.3c7.8-.384,14.159-4.466,20.813-8.745,2.567-1.651,5.241-3.361,8.118-4.937,3.138,2.471,6.947,2.671,10.643,2.858,3.031.153,6.166.312,8.984,1.723a1.5,1.5,0,0,0,2.064-.782,1.561,1.561,0,0,0-.791-1.935c-3.361-1.662-6.943-1.843-10.106-2-2.926-.148-5.542-.292-7.722-1.438a44.775,44.775,0,0,1,22.64-4.566c3.731.216,6.916.649,9.728,1.031,6.009.816,10.767,1.463,16.524-.529a1.558,1.558,0,0,0,1.055-1.7,1.5,1.5,0,0,0-1.972-1.157c-5.11,1.784-9.344,1.209-15.2.413-2.64-.359-5.627-.755-9.086-.989a18.756,18.756,0,0,1,10.464-3.531c2.031-.174,3.8-.327,4.911-1.567a1.571,1.571,0,0,0,.115-2.049,1.5,1.5,0,0,0-2.327.022c-.3.376-1.651.493-2.957.606-3.576.308-8.935.786-14.669,6.381C64.657,52.7,55.2,58.766,46.793,64.174c-2.165,1.392-4.253,2.728-6.332,3.909,1.016-3.855,3-6.813,5.093-9.887,2.133-3.13,4.341-6.367,5.478-10.643a1.5,1.5,0,0,0-1.319-1.881,1.574,1.574,0,0,0-1.607,1.211c-1.013,3.731-2.966,6.595-5.031,9.623-2.568,3.766-5.2,7.677-6.044,13.356a25.083,25.083,0,0,1-10.049,2.571c-.13-1.106-.265-3.929-.265-3.929a7.022,7.022,0,0,0-.67-2.542c-.7-1.491-.248-2.628.618-4.51a9.581,9.581,0,0,0,1.221-5.825,8.291,8.291,0,0,1,.253-4.056,7.115,7.115,0,0,1,5.455-4.687c3.1-.667,5.859-3.207,7.874-5.062l.42-.385a4.78,4.78,0,0,1,2.613-1h0A17.388,17.388,0,0,0,51.253,39.2a3.836,3.836,0,0,1,2.463-.177l.417.11c4.469,1.191,9.534,2.543,20.07.8,13.3-2.2,34.309.492,44.843,4.278,3.067,1.1,4.775,3.168,5.077,6.137C124.716,56.183,117.729,58.4,115.214,58.722Z" style="fill:#452f4c"/></g></svg>